<svg xmlns="http://www.w3.org/2000/svg" viewBox="0 0 265.321 138.189"><g data-name="グループ 463"><path fill="#222" d="M136.402 8.398a340.245 340.245 0 0 0-37.025 4.484c-.61.121-1.426.276-2.375.455a352.86 352.86 0 0 0-40.235 9.742c-20.972 6.62-35.623 14.424-43.546 23.195a36.574 36.574 0 0 0-7.823 13.64 37.4 37.4 0 0 0-1.517 7.374 38.338 38.338 0 0 0 4.096 21.52 34.85 34.85 0 0 0 4.001 6.037 31.93 31.93 0 0 0 5.172 5 89.859 89.859 0 0 0 11.05 7.59A61.102 61.102 0 0 0 44 113.482a131.227 131.227 0 0 0 25.452 3.166 365.465 365.465 0 0 0 40.08-.96 709.666 709.666 0 0 0 16.707-1.381l.014-.001c.347-.042 34.937-4.17 63.204-8.07 3.377 4.556 8.682 8.605 15.771 12.036a80.746 80.746 0 0 0 13.951 5.157.56.56 0 0 0 .311-1.077c-3.528-1.097-6.364-3.725-8.43-7.812a35.944 35.944 0 0 1-3.21-10.968c7.62-1.174 12.809-2.09 15.851-2.799a50.023 50.023 0 0 0 26.57-15.43 43.275 43.275 0 0 0 7.419-11.817 40.331 40.331 0 0 0 3.09-13.145 38.505 38.505 0 0 0-7.028-24.687 45.472 45.472 0 0 0-10.32-10.447 60.71 60.71 0 0 0-15.152-7.99c-12.884-4.73-28.526-7.778-46.496-9.06a323.821 323.821 0 0 0-45.383.2zm-26.947 106.168a364.38 364.38 0 0 1-39.957.959 130.148 130.148 0 0 1-25.232-3.136 60.015 60.015 0 0 1-15.522-5.931 88.975 88.975 0 0 1-10.914-7.501 30.803 30.803 0 0 1-4.99-4.824 33.723 33.723 0 0 1-3.872-5.846A37.098 37.098 0 0 1 4.96 74.58a36.495 36.495 0 0 1 1.51-14.335 35.461 35.461 0 0 1 7.584-13.226c4.222-4.672 10.501-9.129 18.664-13.243a165.333 165.333 0 0 1 24.388-9.634 351.805 351.805 0 0 1 40.109-9.707c.947-.18 1.764-.335 2.38-.456a338.997 338.997 0 0 1 36.886-4.466c46.807-3.283 75.55 2.97 91.416 8.794a59.593 59.593 0 0 1 14.871 7.84 44.354 44.354 0 0 1 10.067 10.19 37.396 37.396 0 0 1 6.832 23.976 39.218 39.218 0 0 1-3.01 12.78 42.156 42.156 0 0 1-7.227 11.51 48.91 48.91 0 0 1-25.985 15.08c-3.04.709-8.528 1.672-16.31 2.866a.56.56 0 0 0-.47.629 37.65 37.65 0 0 0 3.396 11.869 18.241 18.241 0 0 0 4.379 5.768c-7.123-2.426-18.378-7.336-24.274-15.513a.56.56 0 0 0-.531-.228c-28.188 3.895-62.85 8.034-63.508 8.112a701.663 701.663 0 0 1-16.672 1.38z" data-name="パス 42353"/></g><path fill="#222" d="M68.108 63.517l-.497-.167a2.05 2.05 0 0 1-.288-.363.849.849 0 0 1-.115-.48 3.42 3.42 0 0 0 .034-.94q-.047-.499-.113-.967l-.065-.133-.038-.61-.053-.04-.398-2.83-.144-.687.007-.29a6.46 6.46 0 0 1-.25-.935 1.812 1.812 0 0 0-.323-.783l-.831 1.492-.219.125-.499.828-.199.264-.465.397-.06.244-.2.265-.412.436-.286.324a1.834 1.834 0 0 1-.385.29.946.946 0 0 1-.505.119l-.497-.166a1.4 1.4 0 0 1-.264-.367.855.855 0 0 1-.085-.438l.167-.497.857-.971.239-.318a8.826 8.826 0 0 0 .635-.704 5.361 5.361 0 0 0 .53-.781q.964-1.556 1.932-3.088a16.254 16.254 0 0 0 1.58-3.252 3.819 3.819 0 0 0 .15-.613 2.243 2.243 0 0 1 .196-.619 1.4 1.4 0 0 1 .367-.265.855.855 0 0 1 .437-.084l.497.166a1.4 1.4 0 0 1 .265.367.855.855 0 0 1 .085.437 7.682 7.682 0 0 1-.126.787 4.62 4.62 0 0 1-.225.754l-.127.113-.603 1.457-.093.013a4.159 4.159 0 0 1-.333.827q-.207.385-.386.789l.245.06a6.1 6.1 0 0 1 .656 1.636q.22.892.397 1.814l.019.471.053.04.39 2.776.297 1.776q.025.517.024 1.014a2.632 2.632 0 0 1-.17.947 1.4 1.4 0 0 1-.366.265.855.855 0 0 1-.44.095zm13.933-3.923q-.238-.014-.503-.048a1.307 1.307 0 0 1-.47-.147 1.4 1.4 0 0 1-.265-.367.855.855 0 0 1-.084-.437l.166-.497a12.433 12.433 0 0 0 4.162-1.885 16.124 16.124 0 0 0 3.407-3.205l1.317-1.747.754-.864a.624.624 0 0 1 .03-.288 2.62 2.62 0 0 1 .124-.3.986.986 0 0 1 .404-.318 1.247 1.247 0 0 1 .53-.098l.498.167a1.4 1.4 0 0 1 .265.366.855.855 0 0 1 .084.438 1.851 1.851 0 0 1-.196.62q-.15.28-.297.585l-.098.014.013.093-.484.59-.353.522-.12.16q-.642.658-1.21 1.329t-1.126 1.412a22.287 22.287 0 0 1-3.025 2.39 11.04 11.04 0 0 1-3.523 1.515zm.272-8.843l-.497-.167-1.621-1.097-.89-.582a1.4 1.4 0 0 1-.264-.366.936.936 0 0 1-.088-.462l.166-.497a1.4 1.4 0 0 1 .367-.264.855.855 0 0 1 .437-.085 1.514 1.514 0 0 1 .652.264l.63.433.066.133 1.602.958a1.834 1.834 0 0 1 .29.385.946.946 0 0 1 .119.505l-.167.497a1.4 1.4 0 0 1-.367.264.855.855 0 0 1-.435.08zm17.273 6.021l-.5-.19a1.4 1.4 0 0 1-.265-.366.855.855 0 0 1-.085-.438.951.951 0 0 1 .17-.473q.156-.235.269-.442 1.682-2.177 3.152-4.514a48.167 48.167 0 0 0 2.643-4.773l-.02-.14-.928.13q-1.333.283-2.616.582a15.884 15.884 0 0 0-2.491.8l-.497-.167a1.4 1.4 0 0 1-.265-.367.855.855 0 0 1-.085-.437l.167-.497a10.188 10.188 0 0 1 3.299-1.281q1.767-.355 3.576-.656a3.082 3.082 0 0 1 .756-.011 1.491 1.491 0 0 1 .698.257 1.613 1.613 0 0 1 .354.494 1.436 1.436 0 0 1 .134.62 7.541 7.541 0 0 1-.414 1.431q-.28.702-.616 1.365l-.093.013-.173.45-.093.014-.24.649-.093.013-.173.45a5.4 5.4 0 0 0-.385.458 1.243 1.243 0 0 0-.228.53l.35.14a1.734 1.734 0 0 0 .62.362q.348.117.699.257l.012.09.45.173 1.425.7.417.273a4.37 4.37 0 0 0 .762.39 6.849 6.849 0 0 1 .81.382l.566.49.132.596-.167.497a1.775 1.775 0 0 1-.388.268.855.855 0 0 1-.438.084l-.702-.28q-1.227-.673-2.486-1.349a25.619 25.619 0 0 0-2.559-1.202l-.477-.36-1.237 1.973-.83 1.16-.353.523-.16.212-.258.179.013.093-.12.16a3.426 3.426 0 0 1-.43.474.891.891 0 0 1-.61.212zm21.605-.195l-.497-.167a1.4 1.4 0 0 1-.265-.366 1.019 1.019 0 0 1-.091-.484 32.787 32.787 0 0 0 1.487-3.557 30.839 30.839 0 0 0 1.045-3.681q-1.013-.473-2.049-.924a7.565 7.565 0 0 0-2.14-.575l-.1.298a1 1 0 0 1-.382.314 1.131 1.131 0 0 1-.508.095l-.497-.167a1.4 1.4 0 0 1-.264-.367.855.855 0 0 1-.085-.437 17.072 17.072 0 0 0 1.087-2.709q.42-1.384.792-2.785a1.4 1.4 0 0 1 .366-.265.855.855 0 0 1 .438-.084l.497.166.225.252a23.972 23.972 0 0 1 2.595-.222 9.929 9.929 0 0 1 2.518.238 1.107 1.107 0 0 1 .347.614q.075.368.127.74a54.6 54.6 0 0 1-1.255 6.731 37.612 37.612 0 0 1-2.283 6.476l-.093.013-.133.398-.093.013.013.093a1.4 1.4 0 0 1-.367.264.855.855 0 0 1-.435.085zm2.177-10.082l-.014-.093a17.674 17.674 0 0 1 .313-1.82 11.872 11.872 0 0 0 .267-1.812q-.948-.01-1.914.032a13.43 13.43 0 0 0-1.933.224l-.562 2.068a8.713 8.713 0 0 1 1.955.6q.938.415 1.888.8zm15.442 7.464l-.497-.167a1.4 1.4 0 0 1-.265-.367.855.855 0 0 1-.084-.436q1.382-3.294 2.471-6.122a28.539 28.539 0 0 0 1.586-6.4l-2.323.279-1.644.42-.289-.007-1.33 3.643a2.05 2.05 0 0 1-.364.287.849.849 0 0 1-.481.115l-.497-.166a1.4 1.4 0 0 1-.265-.367.855.855 0 0 1-.084-.438q.394-1.239.862-2.488t1-2.483a2.655 2.655 0 0 1 .422-.363.939.939 0 0 1 .548-.147l.497.166.228.271.325-.045.726-.22 2.043-.288q.521-.002 1.047.043a2.363 2.363 0 0 1 .991.31 1.08 1.08 0 0 1 .344.59q.072.346.124.718a28.722 28.722 0 0 1-1.547 6.714q-1.116 3.009-2.621 6.44a1.5 1.5 0 0 1-.399.359.912.912 0 0 1-.524.15zm6.788-14.847l-.55-.207-1.119-.718-.615-.34a1.4 1.4 0 0 1-.264-.366.855.855 0 0 1-.085-.438l.166-.497a1.4 1.4 0 0 1 .367-.264 1.019 1.019 0 0 1 .484-.092l.977.384.675.426.417.273.013.093.153.074a.676.676 0 0 1 .266.376 4.364 4.364 0 0 1 .086.45l-.166.497a1.4 1.4 0 0 1-.367.264.855.855 0 0 1-.438.085zm1.68-2.2q-.398-.133-.802-.314l-.808-.36a1.4 1.4 0 0 1-.264-.367.855.855 0 0 1-.085-.437l.166-.497a1.4 1.4 0 0 1 .367-.265 1.019 1.019 0 0 1 .481-.09l1.405.56a1.5 1.5 0 0 1 .359.4.912.912 0 0 1 .144.523l-.166.497a1.4 1.4 0 0 1-.367.265.855.855 0 0 1-.43.085zm12.638 13.465l-.497-.164a1.4 1.4 0 0 1-.265-.366.855.855 0 0 1-.084-.438l.36-.808.16-.211.671-.97a11.611 11.611 0 0 0 .94-1.742l.776-1.815q.134-.726.318-1.442a7.2 7.2 0 0 0 .22-1.475l-.843.025-1.905.268q-1.339.235-2.616.58t-2.498.755a2.319 2.319 0 0 1-.364-.067 1.89 1.89 0 0 1-.32-.12 1.4 1.4 0 0 1-.265-.367.855.855 0 0 1-.085-.437l.167-.497a15.2 15.2 0 0 1 2.75-.979q1.462-.37 2.934-.673l1.947-.273q.61-.038 1.227-.03a2.892 2.892 0 0 1 1.173.261 1.308 1.308 0 0 1 .449.837l.143 1.02q-.261 1.173-.502 2.32a10.824 10.824 0 0 1-.745 2.258q-.293.61-.63 1.272t-.662 1.347l-.16.212-.392.577-.159.212-.12.159-.12.16a2.165 2.165 0 0 1-.435.44.921.921 0 0 1-.568.17zm-4.204-13.065a2.319 2.319 0 0 1-.365-.067 1.89 1.89 0 0 1-.32-.12 1.363 1.363 0 0 1-.265-.377.9.9 0 0 1-.087-.45l.167-.497a4.574 4.574 0 0 1 1.695-.57 17.69 17.69 0 0 0 1.82-.35l2.411-.339.497.167a1.4 1.4 0 0 1 .265.366.855.855 0 0 1 .084.438l-.163.52a.7.7 0 0 1-.299.231l-.358.146-2.09.293zm17.452 8.15a2.319 2.319 0 0 1-.364-.067 1.89 1.89 0 0 1-.32-.12 1.125 1.125 0 0 1-.29-.386 1.789 1.789 0 0 1-.142-.5 54.454 54.454 0 0 1 1.438-5.575q.868-2.748 2.005-5.441a1.4 1.4 0 0 1 .366-.265.855.855 0 0 1 .438-.085l.497.167a1.363 1.363 0 0 1 .266.377 1.074 1.074 0 0 1 .092.491q-.88 2.16-1.618 4.488t-1.314 4.64l.093-.014q1.758-.625 3.47-1.245t3.397-1.423l-.02-.142a12.169 12.169 0 0 0-.873-.988 2.034 2.034 0 0 1-.569-1.174l.167-.497a1.4 1.4 0 0 1 .367-.265.855.855 0 0 1 .437-.085l.497.167 1.614 2.045.093-.013 1.107 1.312.093-.013 1.204 1.156a1.337 1.337 0 0 1 .267.389 1.131 1.131 0 0 1 .095.508l-.166.497a1.4 1.4 0 0 1-.367.264.855.855 0 0 1-.438.085l-.52-.163-1.654-1.668-.185.026a41.64 41.64 0 0 1-4.542 1.87q-2.325.803-4.62 1.647zm25.055-1.415a7.125 7.125 0 0 1-1.2-.115 2.528 2.528 0 0 1-1.115-.53 8.752 8.752 0 0 1-1.23-1.507 8 8 0 0 1-.838-1.753 6.91 6.91 0 0 1-.831-.025 2.042 2.042 0 0 1-.766-.224 1.4 1.4 0 0 1-.265-.366.855.855 0 0 1-.084-.438l.166-.497a1.4 1.4 0 0 1 .367-.265 1.019 1.019 0 0 1 .484-.09l.484.074-.104-.743-.25-1.432-.024-.85-.093.014-.779.204-.497-.166a1.4 1.4 0 0 1-.264-.367.855.855 0 0 1-.085-.437l.166-.497a1.565 1.565 0 0 1 .704-.383l.823-.21a6.023 6.023 0 0 1 .2-1.769 11.216 11.216 0 0 1 .592-1.68 1.4 1.4 0 0 1 .367-.265.855.855 0 0 1 .438-.085l.497.167a1.4 1.4 0 0 1 .264.366 1.019 1.019 0 0 1 .092.484q-.2.597-.38 1.178a5.809 5.809 0 0 0-.234 1.204q.564-.032 1.13-.04a2.61 2.61 0 0 1 1.07.204 1.4 1.4 0 0 1 .265.367 1.019 1.019 0 0 1 .091.484l-.166.497a1.4 1.4 0 0 1-.367.265.855.855 0 0 1-.438.084 4.352 4.352 0 0 0-.794-.101 2.873 2.873 0 0 0-.816.091l.24 2.381.138.643.325-.045q.485-.257.989-.543a3.123 3.123 0 0 1 1.107-.37l.497.167a1.4 1.4 0 0 1 .265.367.855.855 0 0 1 .085.438l-.167.497a11.013 11.013 0 0 1-1.245.743 7.059 7.059 0 0 1-1.37.524l.026.186a8.612 8.612 0 0 0 .632 1.123 7.069 7.069 0 0 0 .802.998q.298.1.617.174a1.389 1.389 0 0 0 .683-.025 3.3 3.3 0 0 0 1.065-.671 7.4 7.4 0 0 0 .88-.976q.42-.722.766-1.457a2.719 2.719 0 0 0 .237-1.575l-.11-.412.166-.497a1.337 1.337 0 0 1 .389-.268 1.131 1.131 0 0 1 .508-.091l.52.163a.961.961 0 0 1 .284.505q.064.293.11.623a4.813 4.813 0 0 1-.454 2.407 14.165 14.165 0 0 1-1.288 2.191 6.983 6.983 0 0 1-1.453 1.281 4.383 4.383 0 0 1-1.824.671zM59.39 94.524l-.513-.117a1.4 1.4 0 0 1-.297-.349 1.031 1.031 0 0 1-.126-.467 6.484 6.484 0 0 1 .392-1.085 3.181 3.181 0 0 0 .213-1.178 22.931 22.931 0 0 0-3.475-.056q-1.749.104-3.499.113a2.05 2.05 0 0 1-.287-.363 1.084 1.084 0 0 1-.155-.428l.309-3.191a4.1 4.1 0 0 0-1.013.036 1.886 1.886 0 0 1-.959-.09 1.672 1.672 0 0 1-.276-.365.951.951 0 0 1-.12-.43l.144-.495a1.04 1.04 0 0 1 .362-.299 1.236 1.236 0 0 1 .503-.13l1.57-.103q.083-.769.112-1.565a9.544 9.544 0 0 1 .186-1.553l.388-.268.034-.265a1.765 1.765 0 0 1 .352-.275.89.89 0 0 1 .421-.119q1.857-.095 3.723-.37a14.007 14.007 0 0 1 3.696-.057 1.345 1.345 0 0 1 .3.361.782.782 0 0 1 .092.438q.042.802.015 1.618t-.033 1.626a9.263 9.263 0 0 0 1.15.004 2.757 2.757 0 0 1 1.097.149 2.034 2.034 0 0 1 .32.345.858.858 0 0 1 .149.464l-.14.517a1.459 1.459 0 0 1-.351.285.766.766 0 0 1-.446.11l-1.873-.02-.228 2.758q.335.024.635.054a2.119 2.119 0 0 1 .6.152 1.4 1.4 0 0 1 .298.349.89.89 0 0 1 .12.421l-.141.517a1.2 1.2 0 0 1-.346.32 1.031 1.031 0 0 1-.467.126l-.941-.128a4.667 4.667 0 0 1-.202 1.341q-.164.437-.52 1.269a2.22 2.22 0 0 1-.35.285.68.68 0 0 1-.423.108zm-.095-5.052l-.02-.14.251-2.426a5.653 5.653 0 0 0-1.011-.011q-.527.038-1.038.11l-.47 2.409zm-4.244-.018l-.013-.093q.157-.567.303-1.132a5.009 5.009 0 0 0 .156-1.158l-1.595.106q-.103.607-.176 1.184a10.71 10.71 0 0 0-.081 1.195zm4.608-4.435l-.036-.09.025-2.18-1.97.134a7.215 7.215 0 0 1 .031 1.144q-.03.536-.046 1.107zm-3.878.19a9.037 9.037 0 0 1 .056-1.038 6.459 6.459 0 0 0 .029-1.057l-1.68.165q-.041.55-.08 1.03t-.059 1.025l1.695-.072zm-5.575-1.943l-.476-.194a1.937 1.937 0 0 1-.234-.393 1.14 1.14 0 0 1-.08-.486l.38-.668a11.641 11.641 0 0 0 1.433-1.93 19.843 19.843 0 0 0 1.07-2.038 2.2 2.2 0 0 0 .132-.586 1.777 1.777 0 0 1 .193-.642 2.122 2.122 0 0 1 .385-.208.829.829 0 0 1 .454-.052l.45.173a1.008 1.008 0 0 1 .265.532l.085.603q-.14.35-.274.745t-.244.792l1.448-.133.044-.03 3.04-.261 2.235-.267q.288.03.586.048a1.021 1.021 0 0 1 .563.217 2.419 2.419 0 0 1 .227.442 1.4 1.4 0 0 1 .085.437l-.216.48a1.659 1.659 0 0 1-.412.27.956.956 0 0 1-.46.089 2.533 2.533 0 0 0-.644-.028q-.352.026-.683.025l-2.881.382-1.201.074-2.423.27-.457-.054a10.112 10.112 0 0 1-.542.857 8.638 8.638 0 0 1-.665.827l-.239.152-.107.251a1.253 1.253 0 0 1-.392.245 1.069 1.069 0 0 1-.44.063zm26.489 6.43l-.496-.162a3.076 3.076 0 0 1-.556-1.176q-.15-.641-.293-1.331l-.34-2.414-.3-1.804a17.36 17.36 0 0 0-.277-3.061 6.824 6.824 0 0 1 .111-2.998 8.637 8.637 0 0 1 2.441-.817q1.294-.229 2.627-.511l4.038-.568a3.3 3.3 0 0 1 .716.065 4.111 4.111 0 0 1 .691.206l.318.24a2.037 2.037 0 0 1 .427.684q.15.393.278.802l.353 2.506.186 1.489.522 3.713.363 1.747a4.978 4.978 0 0 0 .051.7 1.026 1.026 0 0 1-.16.71l-.22.125.014.093a1.567 1.567 0 0 1-1.003.444q-.63.065-1.233.15l-2.138.222-1.293.229-.054-.04-3.482.49zm8.933-3.125l-.019-.133.014-.238-.263-1.194-.32-2.277-.278.039-1.85.307a3.986 3.986 0 0 0-.872.028l-.905.127-.312.139-3.527.495-.57-.015.046.325.053.04.346 2.46.19 1.015.278-.04.04-.053 3.664-.515 1.074-.103 1.526-.262zm-.836-5.61l-.522-3.714-.118-.504-.431-.034-3.763.528-1.937.368q-.968.183-1.93.413l.421 4.012.805-.019 3.018-.424.218-.125 2.179-.307a3.028 3.028 0 0 0 1.014-.024 7.065 7.065 0 0 1 1.002-.117zm28.429 5.921a10.4 10.4 0 0 1-2.256-.807q-1.106-.542-2.174-1.103l-.4.53-.558.575-.615.655q-.425.343-.83.66a1.785 1.785 0 0 1-1.015.357l-.497-.167a1.4 1.4 0 0 1-.265-.367.855.855 0 0 1-.084-.437l.166-.497a6.872 6.872 0 0 0 1.33-.98 13.1 13.1 0 0 0 1.19-1.29l.027-.147-.41-.226q-.324-.286-.654-.615a1.085 1.085 0 0 1-.326-.807l.166-.497a1.857 1.857 0 0 1 .37-.24.855.855 0 0 1 .438-.085l.497.166.423.32a1.7 1.7 0 0 0 .268.305.987.987 0 0 0 .347.2l.14-.02q.44-.583.807-1.166a5.725 5.725 0 0 0 .584-1.23l-.696.074q-.899.174-1.761.353t-1.689.368q-.238-.014-.453-.031a.7.7 0 0 1-.404-.18 1.4 1.4 0 0 1-.265-.366.855.855 0 0 1-.085-.438l.167-.497a1.4 1.4 0 0 1 .367-.265 1.019 1.019 0 0 1 .484-.09l.149.049q1.169-.307 2.376-.523t2.419-.387q.331 0 .696-.015a.85.85 0 0 1 .606.187 1.4 1.4 0 0 1 .264.367 1.019 1.019 0 0 1 .092.484q-.2.597-.363 1.21a4.433 4.433 0 0 1-.488 1.157l-.093.013-.264.653-.093.013-.1.298-.63.916.02.14.1.033a4.865 4.865 0 0 0 1.08.688q.568.264 1.132.563.344.094.677.189a4.805 4.805 0 0 1 .688.259 1 1 0 0 1 .314.382 1.131 1.131 0 0 1 .095.507l-.17.474a2.492 2.492 0 0 1-.392.245.855.855 0 0 1-.444.088zm-12.334 1.497l-.497-.166a1.056 1.056 0 0 1-.237-.346q-.073-.178-.152-.405l-.015-1.125-.76-5.411-.094.013a7.127 7.127 0 0 0-1.214.786 4.233 4.233 0 0 1-1.251.696l-.497-.166a1.4 1.4 0 0 1-.265-.367.855.855 0 0 1-.085-.437l.167-.497a8.2 8.2 0 0 1 1.448-1.15 17.515 17.515 0 0 1 1.609-.889l-.182-1.631-.085-.27-.012-.424-.094.013-2.179.496a4.663 4.663 0 0 0-.497 0 .855.855 0 0 1-.463-.101 1.4 1.4 0 0 1-.265-.367.855.855 0 0 1-.084-.438l.166-.497a1.4 1.4 0 0 1 .367-.264 3.267 3.267 0 0 1 .47-.185l.379-.005 1.94-.51-.124-.882L98 72.222q.014-.238.031-.453a.817.817 0 0 1 .176-.43 1.4 1.4 0 0 1 .367-.264.855.855 0 0 1 .438-.084l.497.166a4.535 4.535 0 0 1 .501 1.55q.12.847.277 1.63l1.119-.158a1.967 1.967 0 0 1 1.06.135 1.4 1.4 0 0 1 .264.367.855.855 0 0 1 .085.437l-.166.497a1.337 1.337 0 0 1-.389.268 1.789 1.789 0 0 1-.501.141l-1.028.097-.178.073.235 1.671.093-.013a1.884 1.884 0 0 1 .481-.28 2.508 2.508 0 0 1 .594-.155l.497.167a1.4 1.4 0 0 1 .264.367.855.855 0 0 1 .085.437l-.206.55a6.19 6.19 0 0 1-.803.517q-.418.224-.856.476l.89 6.337q.02.471.034.919a1.9 1.9 0 0 1-.164.85 1.4 1.4 0 0 1-.366.265.855.855 0 0 1-.44.081zm10.138-11.057l-.477-.194a12.584 12.584 0 0 1-1.358-2.673 12.738 12.738 0 0 1-.655-3.056l-.42.036a4.883 4.883 0 0 1-1.16.258 5.145 5.145 0 0 0-1.182.261l.124 1.048.137.975q-.076.98-.19 1.932a10.6 10.6 0 0 1-.41 1.891 1.857 1.857 0 0 1-.369.242.722.722 0 0 1-.44.062l-.498-.167a1.419 1.419 0 0 1-.26-.412 1.054 1.054 0 0 1-.06-.513q.135-.894.28-1.802a7.558 7.558 0 0 0 .053-1.89q-.069-.486-.19-1.014t-.256-.982l.193-.476.2-.264a13.652 13.652 0 0 1 2.45-.676q1.257-.224 2.558-.407l.742.251q.547 1.741.955 3.428a15.7 15.7 0 0 0 1.227 3.341l-.194.477a1.193 1.193 0 0 1-.368.254.948.948 0 0 1-.427.074zm26.518 6.432l-.526-.21a2.22 2.22 0 0 1-.287-.352.706.706 0 0 1-.09-.472 5.332 5.332 0 0 0 .075-1.23q-.031-.646 0-1.266l-.223-1.932a6.858 6.858 0 0 1-.342-.993 3.289 3.289 0 0 0-.404-.936.716.716 0 0 0-.55-.041.784.784 0 0 1-.547-.018l-2.749.315a15.42 15.42 0 0 1-2.052.384 8.77 8.77 0 0 0-1.993.47l.115 1.498.112.458-.043.196.112.458.122 1.874.386 2.076-.166.497a1.511 1.511 0 0 1-.372.23.948.948 0 0 1-.439.073l-.55-.206a5.452 5.452 0 0 1-.556-1.803q-.142-1.01-.256-1.984l-.008-.733-.192-1.204-.144-1.642-.066-.133a1.712 1.712 0 0 1 .078-.366 1.582 1.582 0 0 1 .136-.303l.564-.363.033-.1a12.426 12.426 0 0 1 2.94-.804q1.553-.23 3.115-.568 1.03-.074 2.082-.174a3.536 3.536 0 0 1 1.97.362l.013.093.093-.013a4.867 4.867 0 0 1 .956 1.771q.307 1.01.52 2.022.158 1.233.184 2.448a9.114 9.114 0 0 1-.222 2.29 1.775 1.775 0 0 1-.384.268.722.722 0 0 1-.445.063zm-13.58 1.387l-.497-.166a.632.632 0 0 1-.258-.32q-.076-.202-.149-.383l-.005-.378-.205-.779-.283-2.014.04-.053-.26-1.857-.113-.458-.088.013-.479.967-.093.013-.133.397-.366.43-.159.213q-.212.172-.428.32a.822.822 0 0 1-.501.141l-.497-.166a1.4 1.4 0 0 1-.265-.367 1.019 1.019 0 0 1-.091-.484l.166-.497a1.044 1.044 0 0 0 .289-.3 1.723 1.723 0 0 0 .183-.382 3.265 3.265 0 0 0 .558-.74q.226-.411.407-.815.193-.643.366-1.264t.32-1.257l-.324.046q-.445.205-.84.421a2.045 2.045 0 0 1-.912.246l-.497-.166a1.4 1.4 0 0 1-.265-.367.855.855 0 0 1-.085-.437l.167-.497a7.862 7.862 0 0 1 1.39-.717q.74-.293 1.457-.583l-.112-.792-.072-.179.02-.192-.14.02a.729.729 0 0 1-.28.158 2.489 2.489 0 0 1-.346.071l-.497-.166a1.4 1.4 0 0 1-.264-.367.855.855 0 0 1-.085-.437l.163-.52.99-1.039 1.153-1.062a1.337 1.337 0 0 1 .388-.267 1.131 1.131 0 0 1 .508-.095l.497.166a1.4 1.4 0 0 1 .265.367 1.019 1.019 0 0 1 .09.484l-.166.497-.517.357.013.093-.126.112.322 2.298.465-.065 1.1-.25.498.166a1.4 1.4 0 0 1 .265.367 1.019 1.019 0 0 1 .09.484l-.166.497a1.406 1.406 0 0 1-.82.4q-.486.068-.944.18l.016.115.153.074.483.405.013.094.708.326.464.266a2.05 2.05 0 0 1 .287.364.849.849 0 0 1 .115.48l-.166.497a1.4 1.4 0 0 1-.367.265.855.855 0 0 1-.437.085 1.7 1.7 0 0 1-.576-.222 1.7 1.7 0 0 0-.575-.222l.18 1.963a1.376 1.376 0 0 1 .165.497l.079.558.07.842.106.412a1.376 1.376 0 0 0-.021.524l.078.557.109.434-.02.193a2.64 2.64 0 0 1 .193.707l.108.765-.193.643a1.4 1.4 0 0 1-.367.264.855.855 0 0 1-.447.068zm8.974-1.829a3.288 3.288 0 0 0-1.274.037 2.193 2.193 0 0 1-1.24-.062l-.317-.24a2.067 2.067 0 0 1-.274-.434 4.2 4.2 0 0 1-.188-.495l-.31-2.205-.236-1.008.166-.497.093-.013a.259.259 0 0 1 .011-.262 1.229 1.229 0 0 0 .11-.229 1.244 1.244 0 0 1 .85-.356 3.419 3.419 0 0 0 .968-.183q.61-.038 1.214-.123a1.833 1.833 0 0 1 1.113.174l.59.486a9.495 9.495 0 0 1 .374 1.32q.144.686.312 1.376l-.047.503.105.412-.001.331.105.411-.166.497a1.4 1.4 0 0 1-.367.265.855.855 0 0 1-.437.085l-.147-.027a1.313 1.313 0 0 1-.474.161zm.117-1.862l-.128-.905-.038-.61-.217-.87-1.625.23.033.231.053.04.277 1.973q.418-.06.839-.095a4.254 4.254 0 0 1 .806.006zm-4.752-6.502a2.319 2.319 0 0 1-.364-.067 1.89 1.89 0 0 1-.32-.12 5.846 5.846 0 0 1-.613-1.833q-.163-.995-.347-1.963a2.319 2.319 0 0 1 .067-.365 1.89 1.89 0 0 1 .12-.32 1.672 1.672 0 0 1 .366-.276.668.668 0 0 1 .439-.074l.656-.045 2.248-.529q.663.002 1.325-.008a3.175 3.175 0 0 1 1.264.236l.013.093.093-.013a.941.941 0 0 1 .347.614 6.041 6.041 0 0 0 .151.736l.065.799.105.41a3.3 3.3 0 0 0-.018.71 1.042 1.042 0 0 1-.187.69.994.994 0 0 1-.617.322l-.743.105-.7.05-.054.051-2.131.3a1.344 1.344 0 0 0-.584.224 1.978 1.978 0 0 1-.578.27zm3.686-2.74l-.137-.974-1.69.095-1.512.355.02.14.216.869.239.014q.55-.125 1.154-.21a7.12 7.12 0 0 0 1.151-.263zm-6.221-2.184l-.496-.167a2.05 2.05 0 0 1-.288-.363.849.849 0 0 1-.115-.48l.167-.498a3.525 3.525 0 0 1 1.586-.666q.902-.15 1.766-.367l-.032-.231q-.179-.259-.375-.515a1.018 1.018 0 0 1-.208-.633l.167-.497a1.4 1.4 0 0 1 .367-.265.855.855 0 0 1 .437-.085l.497.167a4.367 4.367 0 0 1 .658.807 3.056 3.056 0 0 1 .392.939l.75-.058 1.71-.288a2.064 2.064 0 0 0 .785.032 1.061 1.061 0 0 1 .726.134 1.337 1.337 0 0 1 .268.389 1.131 1.131 0 0 1 .094.507l-.166.497a1.4 1.4 0 0 1-.367.265 1.019 1.019 0 0 1-.484.091q-.547-.018-1.09-.012a5.173 5.173 0 0 0-1.093.13l-.04.053-3.014.424a7.72 7.72 0 0 0-1.33.305q-.635.201-1.272.385zm24.573 9.472a20.251 20.251 0 0 1-2.046-.186 3.506 3.506 0 0 1-1.84-.877 8.4 8.4 0 0 1-2.037-3.88q-.498-2.202-1.2-5.843a3.05 3.05 0 0 1 .065-.47 1.6 1.6 0 0 1 .163-.437 1.177 1.177 0 0 1 .379-.255.908.908 0 0 1 .428-.073l.5.19a1.177 1.177 0 0 1 .255.379.908.908 0 0 1 .072.428l.48 2.914q.34 1.397.69 2.803a8.41 8.41 0 0 0 1.135 2.597l.1.034.404.347a.654.654 0 0 0 .286.185 1.582 1.582 0 0 1 .303.135q.626.077 1.272.124a5.444 5.444 0 0 0 1.362-.073 6.976 6.976 0 0 0 2.286-1.079q.877-.667 1.34-1.076a1.091 1.091 0 0 1 1.053-.254 2.492 2.492 0 0 1 .245.392.875.875 0 0 1 .069.487l-.194.477a13.7 13.7 0 0 1-2.41 1.96 7.642 7.642 0 0 1-3.16 1.048zm20.037-2.768l-.603-.247a6.9 6.9 0 0 1-1.456-2.118 9.508 9.508 0 0 1-.71-2.526 11.171 11.171 0 0 1 .3-2.574 9.891 9.891 0 0 1 .934-2.43l.192-.31-.132.019q-1.651.374-3.337.847t-3.4.904l-.496-.166a1.4 1.4 0 0 1-.265-.367.855.855 0 0 1-.084-.437l.166-.497a38.424 38.424 0 0 1 4.233-1.375q2.143-.562 4.368-.917a1.986 1.986 0 0 1 .584.108q.297.1.55.207a1.4 1.4 0 0 1 .264.366 1.019 1.019 0 0 1 .091.484l-.166.497-.093.013.013.093-.266.464-.093.013-.433.96-.093.014.013.093a1.734 1.734 0 0 0-.362.62 5.663 5.663 0 0 1-.264.651q-.134.726-.291 1.461a4.463 4.463 0 0 0-.04 1.568 4.231 4.231 0 0 0 .77 1.95 12 12 0 0 1 1.077 1.768l-.163.52a1.4 1.4 0 0 1-.367.264.855.855 0 0 1-.442.077zm15.86-1.33a3.208 3.208 0 0 1-1.253-.155 3.957 3.957 0 0 1-1.125-.6 2.1 2.1 0 0 1-.623-.894 5.335 5.335 0 0 1-.27-1.086 1.939 1.939 0 0 1 .4-1.192 4.876 4.876 0 0 1 1.405-1.12 5.344 5.344 0 0 1 1.769-.552l-.046-.325-.536-1.784-.657.045-1.903.267q-.238-.014-.503-.047a.986.986 0 0 1-.477-.194 1.4 1.4 0 0 1-.265-.366.855.855 0 0 1-.084-.438l.166-.497a1.4 1.4 0 0 1 .367-.264 1.019 1.019 0 0 1 .484-.092l.245.06 1.856-.26.285.007-.02-.14-.645-1.897-.603.085-1.094.296a2.319 2.319 0 0 1-.365-.067 1.89 1.89 0 0 1-.32-.12 1.4 1.4 0 0 1-.265-.367.855.855 0 0 1-.084-.438l.166-.497a3.271 3.271 0 0 1 1.05-.431l1.176-.26-.056-.396-.243-1.055a2.319 2.319 0 0 1 .067-.364 1.89 1.89 0 0 1 .12-.32 1.4 1.4 0 0 1 .367-.265.855.855 0 0 1 .437-.085l.497.167a2.609 2.609 0 0 1 .406 1.031q.108.6.236 1.179a7.918 7.918 0 0 1 .856.022 2.529 2.529 0 0 1 .838.214 1.4 1.4 0 0 1 .264.366.855.855 0 0 1 .085.438l-.167.497a.825.825 0 0 1-.408.293 1.561 1.561 0 0 1-.533.075l-.478-.027.02.14.493 1.492.418-.059q.312-.138.67-.26a2.418 2.418 0 0 1 .74-.127l.497.167a1.4 1.4 0 0 1 .265.367.855.855 0 0 1 .084.437l-.166.497a3.631 3.631 0 0 1-.953.465q-.52.168-1.07.293l.053.371a9.154 9.154 0 0 1 .372 1.131 9.154 9.154 0 0 0 .372 1.132q.597.2 1.146.407a9.451 9.451 0 0 1 1.112.506 1.834 1.834 0 0 1 .29.386.946.946 0 0 1 .119.504l-.167.497a1.4 1.4 0 0 1-.366.265.855.855 0 0 1-.438.084l-1.603-.627a8.2 8.2 0 0 1-.103 1.116 2.968 2.968 0 0 1-.356 1.008l-.159.212-.258.179.013.093a3.529 3.529 0 0 1-.704.548 3.067 3.067 0 0 1-.84.326zm.088-2.071l.392-.576.075-1.147-.231.033a3.75 3.75 0 0 0-.923.342 3.239 3.239 0 0 0-.79.608l-.027.146.265.532.503.213a.736.736 0 0 0 .524.021zm21.053-1.089a2.319 2.319 0 0 1-.365-.067 1.89 1.89 0 0 1-.32-.12 1.4 1.4 0 0 1-.264-.367.855.855 0 0 1-.085-.437 6.425 6.425 0 0 0 .336-1.314 9.146 9.146 0 0 0 .091-1.374l-.14.02-.862.263a3.3 3.3 0 0 1-.819-.074 2.34 2.34 0 0 1-.752-.32l-.325-.246a2.658 2.658 0 0 1-.66-.996 5.611 5.611 0 0 1-.317-1.234 3.34 3.34 0 0 1 .092-.865 2.578 2.578 0 0 1 .336-.805 4.074 4.074 0 0 1 1.09-.86 3.049 3.049 0 0 1 1.397-.339l.385.041-.189-1.343-.08-.226-.417.06q-1.884.406-3.707.924t-3.57 1.188a2.123 2.123 0 0 1-.387-.063 1.89 1.89 0 0 1-.32-.121 1.4 1.4 0 0 1-.265-.367.855.855 0 0 1-.085-.437l.167-.497a26.767 26.767 0 0 1 4.007-1.463q2.073-.575 4.189-1.015l-.066-.464-.502-1.894.167-.497a1.4 1.4 0 0 1 .366-.264.855.855 0 0 1 .438-.085l.497.166a3.24 3.24 0 0 1 .549 1.283 10.846 10.846 0 0 0 .388 1.4l1.207-.17.04-.053 2.206-.31.497.167a2.05 2.05 0 0 1 .287.363.849.849 0 0 1 .115.48l-.166.498a1.12 1.12 0 0 1-.502.307 4.158 4.158 0 0 1-.62.134l-1.518.167-1.201.216.013.093.053.04.418 2.971.053 1.032.145.358.294 2.089q-.042 1.047-.136 2.066a6.152 6.152 0 0 1-.53 1.98.7.7 0 0 1-.298.231zm-1.33-5.422a2.562 2.562 0 0 0 .254-.723 2.434 2.434 0 0 0 .009-.782.5.5 0 0 0-.195-.208q-.13-.077-.282-.15l-.603.085-.485.59.026.517q.072.18.148.383a.7.7 0 0 0 .235.322l.1.034.013.093.656-.045zm14.04-.814l-.428-.01a2.937 2.937 0 0 1-.303-.219.511.511 0 0 1-.153-.334q-.072-2.664-.17-5.328t-.078-5.196a1.153 1.153 0 0 1 .299-.314.912.912 0 0 1 .415-.165l.52-.002a1.066 1.066 0 0 1 .327.215.737.737 0 0 1 .18.353q.042 2.456.11 5.097t.03 5.348a1.622 1.622 0 0 1-.311.316 1.9 1.9 0 0 1-.44.236zm-.055 4.835l-.814-.406a2.05 2.05 0 0 1-.288-.364q-.122-.196-.3-.454l.007-.285.009-.616.166-.497a2.235 2.235 0 0 1 .684-.357q.387-.125.75-.223a4.2 4.2 0 0 1 .527.044 1 1 0 0 1 .454.196 1.565 1.565 0 0 1 .382.704l.21.823-.166.497-.093.013.013.093q-.339.284-.68.545a1.5 1.5 0 0 1-.862.285z" data-name="パス 42354"/></svg>