<svg xmlns="http://www.w3.org/2000/svg" viewBox="0 0 168.233 109.11"><g fill="#fff" stroke-linecap="round" stroke-linejoin="round" data-name="パス 54664"><path d="M47.24 96.991l6.833-12.993.426-.81-.893-.198c-21.46-4.782-36.347-13.297-37.923-21.695l-.057-.3-.26-.163C8.186 56.324 4.624 51.658 4.78 46.963c.105-3.128 1.858-6.335 5.21-9.53 2.574-2.453 6.033-4.856 10.28-7.142l.679-.365-.429-.64c-1.373-2.053-1.983-4.09-1.811-6.056.246-2.812 2.03-5.433 5.305-7.79 3.26-2.348 7.826-4.32 13.57-5.862 5.782-1.552 12.452-2.586 19.826-3.071 7.647-.504 15.714-.394 23.98.328 14.98 1.309 29.212 4.558 40.072 9.15 5.258 2.223 9.54 4.67 12.728 7.275 3.204 2.617 5.168 5.283 5.84 7.925l.09.353.34.13c3.596 1.365 6.913 3.062 9.86 5.042 2.917 1.96 5.422 4.164 7.447 6.552 4.162 4.91 6.112 10.38 5.637 15.82-.318 3.63-1.684 7.066-4.063 10.212-2.316 3.063-5.492 5.728-9.438 7.923-3.966 2.206-8.51 3.825-13.51 4.814-5.18 1.024-10.624 1.323-16.18.887l-.13-.01-.124.037c-5.848 1.734-12.711 2.903-20.399 3.475-7.972.594-16.418.51-25.1-.248-2.275-.199-4.58-.45-7.045-.77l-.236-.03-.206.12-19.731 11.5z"/><path fill="#222" d="M81.327 7.533c-8.229-.72-16.26-.83-23.872-.328-7.328.483-13.953 1.509-19.69 3.049-5.662 1.52-10.152 3.456-13.343 5.754-3.102 2.232-4.79 4.683-5.017 7.283-.157 1.802.413 3.688 1.696 5.606a1.4 1.4 0 0 1-.5 2.01c-4.193 2.257-7.6 4.623-10.128 7.032-3.216 3.065-4.896 6.109-4.994 9.048-.148 4.428 3.304 8.887 10.26 13.252.33.207.56.544.631.927.36 1.912 1.483 3.879 3.34 5.847 1.897 2.01 4.52 3.98 7.797 5.859 6.696 3.838 15.774 7.1 26.25 9.434a1.4 1.4 0 0 1 .935 2.018L48.995 95.16 66.62 84.887a1.4 1.4 0 0 1 .884-.179c2.456.318 4.75.569 7.015.767 8.646.755 17.053.838 24.988.247 7.638-.568 14.452-1.729 20.252-3.448a1.4 1.4 0 0 1 .507-.053c5.493.43 10.873.135 15.991-.877 4.927-.974 9.403-2.568 13.304-4.738 3.861-2.148 6.963-4.75 9.22-7.734 2.299-3.04 3.619-6.354 3.924-9.85.459-5.25-1.434-10.543-5.473-15.307-1.983-2.34-4.44-4.501-7.303-6.424-2.903-1.95-6.172-3.622-9.719-4.97a1.4 1.4 0 0 1-.86-.963c-.633-2.494-2.519-5.036-5.604-7.556-3.136-2.562-7.361-4.975-12.558-7.172-10.794-4.564-24.95-7.795-39.86-9.097m.121-1.395c31.302 2.734 56.371 13.514 59.258 24.875 14.707 5.586 24.41 16.495 23.393 28.13-1.345 15.397-20.962 26.275-43.944 24.473-11.615 3.443-27.918 4.811-45.759 3.253-2.397-.21-4.755-.473-7.073-.772L45.487 98.824l7.967-15.151C32.019 78.897 16.66 70.3 14.994 61.425c-21.751-13.652-6.132-25.79 4.944-31.75-1.429-2.135-2.118-4.32-1.927-6.506 1.08-12.371 29.482-19.997 63.438-17.03z"/></g><path fill="#222" d="M50.258 44.215a.738.738 0 0 1-.276-.194.738.738 0 0 1-.177-.287l.013-.378a50.536 50.536 0 0 0 1.194-6.66q.376-3.389.808-6.397l-.187-.007-.406.186a.788.788 0 0 1-.494.042.7.7 0 0 1-.274-.21.836.836 0 0 1-.176-.299l.013-.374a1.162 1.162 0 0 1 .293-.342 1.79 1.79 0 0 1 .383-.245l.9-.25q.009-.234.04-.49a.533.533 0 0 1 .225-.393.722.722 0 0 1 .285-.107 2.019 2.019 0 0 1 .329-.012.738.738 0 0 1 .274.198.738.738 0 0 1 .178.287l.035.33.281.01a10.069 10.069 0 0 1 1.222-.075q.634-.001 1.242.02a4.563 4.563 0 0 1 1.649.457 4.869 4.869 0 0 1 1.394 1.057 2.7 2.7 0 0 1 .402 1.245 7.998 7.998 0 0 1-.025 1.37 5.479 5.479 0 0 1-.658 1.408 6.532 6.532 0 0 1-1.27 1.474 24.77 24.77 0 0 1-2.504 1.554 8.57 8.57 0 0 1-2.764.935q-.24 1.54-.459 3.068a10.598 10.598 0 0 1-.877 2.96.722.722 0 0 1-.285.107 2.019 2.019 0 0 1-.328.012zm4.158-8.32q.905-.483 1.795-1.06a4.416 4.416 0 0 0 1.437-1.551 4.457 4.457 0 0 0 .356-.808 2.992 2.992 0 0 0 .08-.959l-.346-.812a3.375 3.375 0 0 0-1.454-.684 7.703 7.703 0 0 0-1.707-.154l-1.34.095q-.156 1.795-.444 3.338t-.443 3.314l.14.005a6.224 6.224 0 0 0 .985-.318q.464-.187.94-.406zm9.578 6.477l-.64-.445a9.647 9.647 0 0 1-.242-2.482q.043-1.229.064-2.519l.049-.045.158-2.527.377-.714.468.017.529.318a1.729 1.729 0 0 1 .173.428 1.042 1.042 0 0 1 .006.493l-.251.483-.156 2.457-.055.232q-.01.96-.008 1.922t.084 1.973l-.18.439zm-.626-9.635l-.596-.373a2.336 2.336 0 0 1-.147-.485 2.59 2.59 0 0 1-.029-.528l.27-.343a8.54 8.54 0 0 0 1.104-.747 2.244 2.244 0 0 1 1.284-.482l.644.35a2.86 2.86 0 0 1 .184.452.875.875 0 0 1 .019.47l-.177.369a3.25 3.25 0 0 0-1.275.6 5.166 5.166 0 0 1-1.284.717zm9.232 9.625a5.557 5.557 0 0 1-1.666-.61 4.81 4.81 0 0 1-1.39-1.185 3.927 3.927 0 0 1-.6-1.603 7.998 7.998 0 0 1-.033-1.748 6.156 6.156 0 0 1 .556-1.623 6.365 6.365 0 0 1 1.003-1.413 5.17 5.17 0 0 1 1.524-1.038 3.8 3.8 0 0 1 1.85-.275 5.026 5.026 0 0 1 .969.467 4.148 4.148 0 0 1 .843.698q.155.264.275.51a.985.985 0 0 1 .061.602l-.155.417-.375-.013-.594-.421a1 1 0 0 0-.258-.361 1.824 1.824 0 0 0-.286-.197l-.63-.116a7.598 7.598 0 0 0-1.2.485 4.177 4.177 0 0 0-1.099.825 5.266 5.266 0 0 0-.822 1.21 4.037 4.037 0 0 0-.389 1.393 6.192 6.192 0 0 0 .12.919 1.346 1.346 0 0 0 .455.743 2.825 2.825 0 0 0 1.22.617 5.875 5.875 0 0 0 1.45.132 9.898 9.898 0 0 0 1.931-.6 10.474 10.474 0 0 0 1.706-.916l.006-.187.516.018.503.305.185.451a.969.969 0 0 1 .017.517l-.247.367a10.91 10.91 0 0 1-2.548 1.342 6.122 6.122 0 0 1-2.902.292zm8.97 2.192l-.549-.371a6.952 6.952 0 0 1-.271-1.98 14.767 14.767 0 0 0-.086-1.903 1.083 1.083 0 0 1-.39-.314 1.42 1.42 0 0 1-.28-.549 3.3 3.3 0 0 1-.06-.623q-.002-.317.012-.715l.665-1.015.198-2.339q.148-1.542.354-3.082a18.148 18.148 0 0 1 .68-3.048l.468.016.506.318a2.346 2.346 0 0 1 .172.44.9.9 0 0 1 .007.458 24.001 24.001 0 0 0-.608 3.097q-.207 1.587-.327 2.99a10.759 10.759 0 0 1 2.71-1.62q1.563-.66 3.224-1.236l.526.37a1.442 1.442 0 0 1 .185.44 1.1 1.1 0 0 1-.005.48l-.176.347q-1.59.647-3.094 1.322a15.754 15.754 0 0 0-2.896 1.7 2.793 2.793 0 0 1-.414.395.449.449 0 0 0-.18.474l.04.87q.809.308 1.778.635a8.431 8.431 0 0 0 2.025.41l1.27.045.528.318a3.128 3.128 0 0 0 .146.449.768.768 0 0 1 .006.5l-.201.393-.329.012-.696-.118-1.264-.044a17.062 17.062 0 0 1-1.777-.491q-.89-.301-1.517-.533l.027-.116q.04.892.05 1.572t.1 1.644l-.2.415zm20.9-.235a4.55 4.55 0 0 1-1.71-.692 5.908 5.908 0 0 1-1.408-1.339 7.254 7.254 0 0 1-.67-1.98 10.919 10.919 0 0 1-.172-2.108l.2-2.408q.254-1.21.599-2.347a9.298 9.298 0 0 1 .941-2.124.736.736 0 0 1 .415-.138 3 3 0 0 1 .456.028l.667.399a2.11 2.11 0 0 1 .157.521 2.21 2.21 0 0 1 .014.61l-.191.134-.027.094-.429.196a13.683 13.683 0 0 0-.93 2.452 12.697 12.697 0 0 0-.422 2.706 10.717 10.717 0 0 0 .146 1.869 3.6 3.6 0 0 0 .786 1.704q.32.222.63.444a1.45 1.45 0 0 0 .729.26q.662-.189 1.352-.454a5.099 5.099 0 0 0 1.292-.74 9.798 9.798 0 0 0 1.634-2.135 9.22 9.22 0 0 0 .942-2.489 6.02 6.02 0 0 0-.264-2.19q-.328-1.02-.619-2.084l.114-.558.467.039.667.398a6.878 6.878 0 0 1 .992 2.836 13.554 13.554 0 0 1-.028 3.152 10.155 10.155 0 0 1-1.092 2.623 10.41 10.41 0 0 1-1.802 2.267 7.067 7.067 0 0 1-1.578.86 3.77 3.77 0 0 1-1.858.194zm8.605 2.011a.738.738 0 0 1-.275-.193.738.738 0 0 1-.177-.288l.013-.377a50.536 50.536 0 0 0 1.19-6.665q.375-3.388.808-6.396l-.186-.006-.406.186a.788.788 0 0 1-.494.041.7.7 0 0 1-.274-.21.836.836 0 0 1-.177-.298l.013-.375a1.162 1.162 0 0 1 .293-.342 1.79 1.79 0 0 1 .388-.242l.9-.25q.008-.233.04-.49a.533.533 0 0 1 .225-.393.722.722 0 0 1 .285-.107 2.019 2.019 0 0 1 .328-.011.738.738 0 0 1 .274.197.738.738 0 0 1 .179.287l.035.33.28.01a10.069 10.069 0 0 1 1.223-.075q.633 0 1.242.02a4.563 4.563 0 0 1 1.648.458 4.869 4.869 0 0 1 1.394 1.057 2.7 2.7 0 0 1 .402 1.244 7.998 7.998 0 0 1-.025 1.37 5.479 5.479 0 0 1-.658 1.408 6.532 6.532 0 0 1-1.27 1.474 24.77 24.77 0 0 1-2.504 1.554 8.57 8.57 0 0 1-2.764.936q-.24 1.539-.459 3.067a10.598 10.598 0 0 1-.877 2.96.722.722 0 0 1-.285.108 2.019 2.019 0 0 1-.329.011zm4.158-8.32q.909-.484 1.796-1.062a4.416 4.416 0 0 0 1.437-1.549 4.457 4.457 0 0 0 .357-.808 2.992 2.992 0 0 0 .08-.958l-.347-.813a3.375 3.375 0 0 0-1.454-.684 7.703 7.703 0 0 0-1.706-.153l-1.336.103q-.157 1.795-.444 3.337t-.448 3.313l.141.005a6.224 6.224 0 0 0 .985-.318q.463-.194.94-.412zM47.74 63.332l-.46-.25a1.4 1.4 0 0 1-.197-.407.855.855 0 0 1-.008-.445l.25-.461a4.131 4.131 0 0 1 1.666-.364 15.509 15.509 0 0 0 1.75-.126l2.39.083.048-.046 2.576.09.049-.045 2.623.09a13.035 13.035 0 0 0 1.766.132 4.2 4.2 0 0 1 1.711.36 1.4 1.4 0 0 1 .197.407.855.855 0 0 1 .008.445l-.25.46a1.12 1.12 0 0 1-.547.216 4.157 4.157 0 0 1-.634.025l-2.454-.226-2.482-.087-.05.046-2.576-.09-.049.045-2.34-.081q-.753.068-1.482.112t-1.505.117zm3.33-7.434l-.46-.25a1.4 1.4 0 0 1-.197-.407.855.855 0 0 1-.008-.446l.25-.46a1.8 1.8 0 0 1 1.066-.291q.585.02 1.148-.007l3.888.135q.28.057.536.089a.7.7 0 0 1 .438.226 2.05 2.05 0 0 1 .22.408.849.849 0 0 1 .03.493l-.25.46a.936.936 0 0 1-.524.193q-.281.014-.609.002l-.045-.048-3.697-.129zM65.648 66.18a2.319 2.319 0 0 1-.347-.13 1.89 1.89 0 0 1-.295-.174 1.4 1.4 0 0 1-.196-.407.936.936 0 0 1-.007-.469l.25-.46a10.633 10.633 0 0 1 2.283-.25l2.368-.01a4.067 4.067 0 0 1 .671-1.778 5.179 5.179 0 0 0 .762-1.774l-1.359-.048q-.751.021-1.48.09l-1.483.136a2.319 2.319 0 0 1-.348-.129 1.89 1.89 0 0 1-.294-.174 1.4 1.4 0 0 1-.197-.407.855.855 0 0 1-.007-.446l.25-.46a8.178 8.178 0 0 1 1.77-.314l1.805-.124 2.342.082.686.399a1.12 1.12 0 0 1 .304.69 3.6 3.6 0 0 1-.028.82q-.312.88-.694 1.734t-.832 1.683l.141.005 2.252-.016.46.25a2.05 2.05 0 0 1 .22.408.849.849 0 0 1 .03.493l-.251.484a1.034 1.034 0 0 1-.406.174q-.213.04-.448.078l-.467-.063zm15.596-6.16q-.185-.077-.358-.154a1.72 1.72 0 0 1-.31-.175 1.857 1.857 0 0 1-.175-.407.936.936 0 0 1-.007-.47l.274-.46a8.028 8.028 0 0 1 2.049-.256q.984.011 2.109.026l2.036.094 1.172.018.746.143 2.434.132q.232.055.465.12a1.167 1.167 0 0 1 .415.215 2.218 2.218 0 0 1 .185.417.976.976 0 0 1 .018.5l-.297.46a.678.678 0 0 1-.476.183q-.281.002-.562-.007l-.046-.049-2.388-.13-1.635-.174-.048.021-2.083-.095zm17.246 6.368l-.46-.274a1.4 1.4 0 0 1-.197-.407.855.855 0 0 1-.007-.446.95.95 0 0 1 .25-.436q.194-.205.34-.389 2.035-1.852 3.888-3.897a48.157 48.157 0 0 0 3.43-4.241l.005-.141-.937-.033q-1.36.047-2.677.118a15.88 15.88 0 0 0-2.591.355l-.46-.25a1.4 1.4 0 0 1-.198-.407.855.855 0 0 1-.007-.445l.25-.46a10.186 10.186 0 0 1 3.47-.69q1.803-.042 3.636-.025a3.081 3.081 0 0 1 .746.12 1.49 1.49 0 0 1 .643.374 1.613 1.613 0 0 1 .262.549 1.436 1.436 0 0 1 .025.634 7.54 7.54 0 0 1-.656 1.337q-.397.642-.843 1.237l-.094-.004-.248.414-.094-.003-.35.597-.093-.003-.249.413a5.399 5.399 0 0 0-.458.384 1.243 1.243 0 0 0-.317.481l.321.2a1.734 1.734 0 0 0 .547.464q.322.175.643.374l-.003.087.414.249 1.28.936.364.34a4.37 4.37 0 0 0 .683.516 6.848 6.848 0 0 1 .732.518l.472.58.026.61-.25.46a1.775 1.775 0 0 1-.43.197.855.855 0 0 1-.445.007l-.642-.397q-1.095-.883-2.213-1.765a25.614 25.614 0 0 0-2.311-1.628l-.407-.436-1.56 1.727-1.021 1.003-.438.454-.193.181-.286.131-.003.094-.146.136a3.425 3.425 0 0 1-.506.393.89.89 0 0 1-.637.104zm19.709-2.41l-.42-.085a2.936 2.936 0 0 1-.26-.267.51.51 0 0 1-.093-.355q.392-2.636.758-5.276t.823-5.13a1.153 1.153 0 0 1 .35-.257.912.912 0 0 1 .437-.09l.513.088a1.066 1.066 0 0 1 .284.268.737.737 0 0 1 .116.379q-.385 2.426-.776 5.038t-.899 5.27a1.622 1.622 0 0 1-.36.258 1.9 1.9 0 0 1-.473.156zm-.893 4.752l-.731-.542a2.05 2.05 0 0 1-.22-.408q-.087-.214-.217-.5l.057-.278.115-.606.25-.46a2.235 2.235 0 0 1 .735-.233q.402-.056.777-.09a4.2 4.2 0 0 1 .511.135 1 1 0 0 1 .413.273 1.565 1.565 0 0 1 .255.759l.064.846-.25.46-.095-.002-.003.093q-.383.221-.765.419a1.5 1.5 0 0 1-.895.13z" data-name="パス 54666"/></svg>