<svg xmlns="http://www.w3.org/2000/svg" viewBox="0 0 232.573 200.168"><g fill="#222"><path d="M171.225 163.03a4.174 4.174 0 0 1-.444-.1 53.928 53.928 0 0 1-13.618-5.612 59.7 59.7 0 0 1-10.484-7.605 58.2 58.2 0 0 1-8.985-10.332 15 15 0 0 1-3.704 8.725 20.325 20.325 0 0 1-9.811 6.21 18.9 18.9 0 0 1-7.059.69 15.141 15.141 0 0 1-11.668-7.237 21.331 21.331 0 0 1-2.487-5.898 28.117 28.117 0 0 1-6.208 10.373 22.589 22.589 0 0 1-9.992 6.09c-6.308 1.808-12.913.55-17.236-3.286a14.268 14.268 0 0 1-4.74-11.224 27.4 27.4 0 0 1-5.868 6.824 20.742 20.742 0 0 1-7.423 3.936 20.54 20.54 0 0 1-14.71-1.405 18.838 18.838 0 0 1-9.426-9.801 13.387 13.387 0 0 1 .66-11.24 19.465 19.465 0 0 1 4.471-5.553 31.58 31.58 0 0 1 5.274-3.708 31.257 31.257 0 0 1-7.37-.667 21.93 21.93 0 0 1-7.6-3.171 17.787 17.787 0 0 1-5.049-5.12 17.608 17.608 0 0 1-2.507-6.328 18.836 18.836 0 0 1 .014-6.967 19.663 19.663 0 0 1 2.562-6.664 20.2 20.2 0 0 1 5.054-5.57 22.56 22.56 0 0 1 7.458-3.678 31.523 31.523 0 0 1 13.279-.665 25.1 25.1 0 0 1-7.941-8.828 20.016 20.016 0 0 1-1.976-5.944 20.861 20.861 0 0 1-.09-6.05c1.355-10.507 10.287-20.418 21.241-23.56a24.627 24.627 0 0 1 17.613 1.357 29.387 29.387 0 0 1 8.48 6.224 41.7 41.7 0 0 1 5.28 6.84c-1.204-6.416-.44-12.351 2.261-17.368a22.963 22.963 0 0 1 6.258-7.333 25.067 25.067 0 0 1 8.437-4.238 24.31 24.31 0 0 1 18.806 2.066c5.38 3.116 9.138 8.334 10.886 15.106a31.962 31.962 0 0 1 7.166-12.968 23.554 23.554 0 0 1 10.736-6.589 24.741 24.741 0 0 1 15.124.568 21.968 21.968 0 0 1 11.291 8.867 18.164 18.164 0 0 1 2.426 12.724c-.74 4.436-2.946 8.916-6.565 13.35a47 47 0 0 1 10.796-4.798 27.437 27.437 0 0 1 9.447-1.128 18.82 18.82 0 0 1 7.594 2.114 17.176 17.176 0 0 1 5.533 4.678 19.627 19.627 0 0 1 3.28 6.502 24.413 24.413 0 0 1 .717 10.005 28.05 28.05 0 0 1-3.538 10.358 31.529 31.529 0 0 1-8.067 9.196 38.677 38.677 0 0 1-10.845 5.846 18.927 18.927 0 0 1 8.915 5.064 13.76 13.76 0 0 1 3.697 9.01 18.184 18.184 0 0 1-1.158 6.924 23.76 23.76 0 0 1-3.7 6.561 26.543 26.543 0 0 1-13.41 9.036 26.049 26.049 0 0 1-12.98.33 35.827 35.827 0 0 1-14.232-7.071c-.034.072-.065.133-.077.173-.766 1.964-.763 4.532.005 7.634a38.544 38.544 0 0 0 3.769 9.115c3.277 5.9 7.873 11.438 11.173 13.465a4.415 4.415 0 0 0 1.114.476c.23.054.355.08.358.08zm-33.572-25.889a57.05 57.05 0 0 0 9.83 11.686 58.494 58.494 0 0 0 10.273 7.448 57.507 57.507 0 0 0 9.253 4.266 35.319 35.319 0 0 1-3.487-3.667 55.3 55.3 0 0 1-5.784-8.465 39.745 39.745 0 0 1-3.886-9.413c-.831-3.348-.819-6.159.038-8.355.184-.482 1.162-2.234 1.393-2.608l.366-.591.532.449a.876.876 0 0 1 .188 1.057 4.977 4.977 0 0 1-.328.667c-.056.1-.14.24-.19.356a34.634 34.634 0 0 0 13.732 6.828 24.865 24.865 0 0 0 12.389-.313 25.333 25.333 0 0 0 12.797-8.625 22.563 22.563 0 0 0 3.52-6.23 16.992 16.992 0 0 0 1.086-6.468 13.087 13.087 0 0 0-.908-4.374 12.366 12.366 0 0 0-2.467-3.863c-2.344-2.507-5.784-4.25-10.225-5.182a6.465 6.465 0 0 1-1.995-.26l-.154-.034-.348-.04a64.915 64.915 0 0 1-1.293-.157l-.065-1.174a4.844 4.844 0 0 1 1.9.183c.867.101 1.535.184 1.919.249a38.291 38.291 0 0 0 12.327-6.261 30.334 30.334 0 0 0 7.762-8.846 26.856 26.856 0 0 0 3.389-9.918 23.206 23.206 0 0 0-.678-9.509 18.434 18.434 0 0 0-3.08-6.106 15.983 15.983 0 0 0-5.14-4.352 17.629 17.629 0 0 0-7.113-1.975 26.247 26.247 0 0 0-9.032 1.084 48.294 48.294 0 0 0-12.552 5.93c-.368.238-1.507 1.029-2.34 1.606l-.78.542-.77-.914c.208-.213.712-.63 1.294-1.114.531-.44 1.191-.987 1.357-1.169 4.518-4.923 7.228-9.899 8.041-14.79a16.98 16.98 0 0 0-2.266-11.893 20.766 20.766 0 0 0-10.68-8.369 23.533 23.533 0 0 0-14.384-.543 22.369 22.369 0 0 0-10.195 6.259 31.2 31.2 0 0 0-7.1 13.24 7.158 7.158 0 0 0-.159 3.13l-1.185.185c-.035-.198-.092-.54-.158-.931-.158-.95-.397-2.383-.51-2.84-1.63-6.617-5.227-11.701-10.41-14.7a23.1 23.1 0 0 0-17.873-1.95 23.873 23.873 0 0 0-8.034 4.035 21.771 21.771 0 0 0-5.934 6.952c-3.133 5.818-3.516 12.972-1.108 20.689a6.938 6.938 0 0 1 .374 1.55c.025.152.05.298.078.446a8.273 8.273 0 0 0 .217.836l-1.104.465a4.367 4.367 0 0 1-.29-1.062c-.046-.214-.093-.44-.137-.656-.089-.43-.18-.872-.255-1.128a44.031 44.031 0 0 0-7.232-10.346 28.2 28.2 0 0 0-8.133-5.974 23.444 23.444 0 0 0-16.773-1.295 29.78 29.78 0 0 0-13.636 8.64 26.2 26.2 0 0 0-6.744 13.917 18.9 18.9 0 0 0 1.941 11.291 25.42 25.42 0 0 0 9.93 9.94 17.888 17.888 0 0 1 2.052.893l.227.108c.825.34 1.418.593 1.663.721l-.429 1.112a12.828 12.828 0 0 1-1.72-.728l-.079-.033c-1.062-.441-1.812-.756-2.156-.937l-.01.002a32.027 32.027 0 0 0-15.545.132 21.365 21.365 0 0 0-7.063 3.481 19.006 19.006 0 0 0-4.758 5.23 18.467 18.467 0 0 0-2.41 6.256 17.641 17.641 0 0 0-.015 6.525 16.413 16.413 0 0 0 2.337 5.9 16.593 16.593 0 0 0 4.712 4.779 20.737 20.737 0 0 0 7.188 2.99 32.028 32.028 0 0 0 9.691.492c.05-.014.103-.036.167-.054.312-.09.792-.177 1.3-.269l.062-.012c.673-.164 1.13-.274 1.342-.298l.312 1.142a1.808 1.808 0 0 1-.24.085c-.271.078-.684.155-1.165.244l-.034.01c-.687.168-1.156.282-1.423.324a33.147 33.147 0 0 0-7.378 4.783 18.275 18.275 0 0 0-4.2 5.206 12.217 12.217 0 0 0-.608 10.258 17.63 17.63 0 0 0 8.83 9.153 19.344 19.344 0 0 0 13.852 1.333 19.549 19.549 0 0 0 6.995-3.711 26.821 26.821 0 0 0 6.155-7.442c.188-.33.642-1.27 1.006-2.026.218-.45.404-.844.516-1.057l1.122.396a4.818 4.818 0 0 1-.415.976 6.5 6.5 0 0 0-.327.718 15.35 15.35 0 0 0 .51 7.482 12.574 12.574 0 0 0 3.598 5.382c4.02 3.566 10.191 4.727 16.109 3.03a21.387 21.387 0 0 0 9.46-5.768 27.872 27.872 0 0 0 6.594-12.028l1.168.055a21.615 21.615 0 0 0 2.812 7.694 13.943 13.943 0 0 0 10.765 6.681 17.709 17.709 0 0 0 6.612-.647 19.113 19.113 0 0 0 9.229-5.836 13.578 13.578 0 0 0 3.427-9.758c-.125-.177-.328-.448-.525-.71l-.125-.167a2.519 2.519 0 0 1-.725-1.114l1.105-.412c.098.164.39.553.544.758l.062.067a3.331 3.331 0 0 1 .815 1.143z" data-name="パス 54633"/><path d="M66.611 99.657a1.926 1.926 0 0 1-.303-.059 1.57 1.57 0 0 1-.27-.1 5.113 5.113 0 0 1-.902-2.36 15.9 15.9 0 0 0-.537-2.568 1.926 1.926 0 0 1 .058-.303 1.569 1.569 0 0 1 .1-.27 9.512 9.512 0 0 1 2.152-.751q1.161-.264 2.357-.432.815-.076 1.638-.093a4.577 4.577 0 0 1 1.565.232l.011.077.077-.01a2.823 2.823 0 0 1 .504 1.206q.114.672.211 1.366.062.718.12 1.418a3.8 3.8 0 0 1-.123 1.354 5.724 5.724 0 0 1-.998.44 4.9 4.9 0 0 1-1.149.22l-.044-.033-4.01.564zm5.264-2.273l-.016-.116a11.917 11.917 0 0 0-.068-1.202q-.067-.61-.153-1.227l-.124-.573a10.731 10.731 0 0 0-1.611.03q-.816.075-1.663.194l-1.969.513.038.27a8 8 0 0 1 .31 1.362 12.949 12.949 0 0 0 .277 1.41l4.086-.574zm-7.052-4.572l-.45-.134a1.117 1.117 0 0 1-.245-.3.649.649 0 0 1-.08-.362l.177-.418a3.6 3.6 0 0 1 1.466-.442 10.752 10.752 0 0 0 1.579-.261l-.025-.861-.217-1.543-.099.014-1.009.22-2.101.296-1.074.19-.471-.13a1.162 1.162 0 0 1-.22-.303.71.71 0 0 1-.07-.364l.138-.413a1.013 1.013 0 0 1 .695-.373 5.421 5.421 0 0 0 .79-.13l2.06-.29 1.108-.234-.217-1.542-.173-.801.063-.403a1.11 1.11 0 0 1 .124-.376 1.717 1.717 0 0 1 .362-.222.794.794 0 0 1 .382-.074l.45.128a1.7 1.7 0 0 1 .245.305.6.6 0 0 1 .09.361l.046.741.063.03.222 1.585 2.347-.33q.777-.07 1.565-.2a4.369 4.369 0 0 1 1.515.003 2.363 2.363 0 0 1 .242.32.458.458 0 0 1 .051.366l-.139.412a1.564 1.564 0 0 1-.4.231 2 2 0 0 1-.475.125 13.751 13.751 0 0 1-1.622.209q-.818.056-1.671.134l-1.165.242.244 1.737.043.584 2.035-.207a5.1 5.1 0 0 0 .764-.088.961.961 0 0 1 .695.118 1.117 1.117 0 0 1 .245.3.768.768 0 0 1 .085.4l-.177.419a1.037 1.037 0 0 1-.684.312q-.423.04-.847.1l-.047-.033-2.128.22q-.947.252-1.964.434t-2.121.298zm27.638 3.37l-.412-.14a1.569 1.569 0 0 1-.17-.231 1.926 1.926 0 0 1-.14-.276l-.266-1.889-.138-.708-.104-.457-.108-1.046-.462.065a11.51 11.51 0 0 0-1.328.344 8.061 8.061 0 0 1-1.37.311l-.413-.139a1.162 1.162 0 0 1-.219-.303.71.71 0 0 1-.07-.364l.139-.412a7.46 7.46 0 0 1 1.667-.588l1.77-.407-.042-.305-.125-.611.011-.199-.27.038-.612.126a1.926 1.926 0 0 1-.303-.059 1.57 1.57 0 0 1-.27-.1 1.162 1.162 0 0 1-.219-.303.71.71 0 0 1-.07-.363l.139-.413a1.078 1.078 0 0 1 .683-.312 3.263 3.263 0 0 0 .784-.169l-.13-1.242-.385.055-1.757.365-.417-.136a1.162 1.162 0 0 1-.22-.303.71.71 0 0 1-.07-.364l.14-.412a1.3 1.3 0 0 1 .584-.319 6.7 6.7 0 0 1 .727-.141l-.017-.118a11.273 11.273 0 0 1-.703-1.09 5.014 5.014 0 0 1-.483-1.201l.139-.413a1.162 1.162 0 0 1 .303-.219.71.71 0 0 1 .364-.07l.412.139q.357.579.737 1.184a5.517 5.517 0 0 1 .594 1.283l-.006.237 1.035-.146-.01-.078-.093-.38q.252-.723.446-1.439a9.569 9.569 0 0 1 .493-1.382 1.474 1.474 0 0 1 .322-.222.71.71 0 0 1 .364-.07l.413.139a1.162 1.162 0 0 1 .219.303.846.846 0 0 1 .076.402l-.744 2.517a3.85 3.85 0 0 1 .545-.037 1.211 1.211 0 0 1 .528.123 1.162 1.162 0 0 1 .22.303.71.71 0 0 1 .07.364l-.14.412a1.085 1.085 0 0 1-.341.225 1.694 1.694 0 0 1-.436.12l-1.412.16.173 1.233.617-.087a.9.9 0 0 1 .587.115 1.162 1.162 0 0 1 .219.303.71.71 0 0 1 .07.364l-.139.412a1.215 1.215 0 0 1-.564.296q-.305.062-.653.11l.037.822.087.34 2.486-.349a5.018 5.018 0 0 0 .623-.048.826.826 0 0 1 .567.117 1.162 1.162 0 0 1 .219.304.846.846 0 0 1 .076.402l-.14.413a.881.881 0 0 1-.55.274l-.655.092-.044-.033-2.293.322.145 1.317.044.033.216.972-.034.044.266 1.89-.139.412a1.162 1.162 0 0 1-.303.22.71.71 0 0 1-.364.07zm-6.681.86l-.413-.14a3.49 3.49 0 0 1-.435-1.413 10.492 10.492 0 0 0-.255-1.536l-.325-2.313-.116-.576-.032-.506-.077.01-.464.616-.218.267-.216.148.011.078-.419.373a.777.777 0 0 1-.523.191l-.413-.14a1.162 1.162 0 0 1-.22-.303.846.846 0 0 1-.075-.402l.14-.413a11.7 11.7 0 0 0 1.438-1.717 16.437 16.437 0 0 0 1.137-1.91l-.193.027a7.811 7.811 0 0 0-1.29.535 4.776 4.776 0 0 1-1.303.459l-.412-.139a1.162 1.162 0 0 1-.22-.298.71.71 0 0 1-.071-.364l.139-.412a16.3 16.3 0 0 1 2.355-1.078 17.334 17.334 0 0 1 2.567-.716l.413.14a1.162 1.162 0 0 1 .219.303.846.846 0 0 1 .076.402l-.741 1.72-.077.01-.084.249-.127.215.968.178a2.757 2.757 0 0 1 .914.343 1.162 1.162 0 0 1 .22.303.71.71 0 0 1 .07.364l-.14.412a1.162 1.162 0 0 1-.303.22.846.846 0 0 1-.402.075l-1.222-.3.138 1.275.044.033.33 2.352.416 2.674-.14.412a1.162 1.162 0 0 1-.303.22.71.71 0 0 1-.362.07zM84.207 85.29l-.412-.139-.905-.836-.691-.61-.104-.457.14-.412a1.132 1.132 0 0 1 .313-.221.752.752 0 0 1 .373-.072l.413.14.148.215.248.083.39.26.286.352.082.028q.187.21.356.431a.883.883 0 0 1 .176.536l-.139.412a1.162 1.162 0 0 1-.303.22.71.71 0 0 1-.367.07zm26.475 9.312l-.413-.139a.828.828 0 0 1-.26-.317.939.939 0 0 1-.079-.421 14.39 14.39 0 0 0 .614-3.182 13.6 13.6 0 0 0-.146-3.273l-1.7.24q-1.686.315-3.35.647a33.352 33.352 0 0 0-3.303.837l-.412-.139a1.162 1.162 0 0 1-.22-.303.71.71 0 0 1-.07-.364l.14-.412a15.574 15.574 0 0 1 3.424-1.087q1.779-.351 3.58-.68l1.658-.233-.028-.196-.29-.981.138-.413a1.162 1.162 0 0 1 .303-.219.71.71 0 0 1 .364-.07l.413.139a2.046 2.046 0 0 1 .413.708 4.464 4.464 0 0 1 .194.818 12.1 12.1 0 0 0 1.531-.157 2.923 2.923 0 0 1 1.427.095 1.162 1.162 0 0 1 .22.303.71.71 0 0 1 .07.364l-.14.412a1.11 1.11 0 0 1-.321.222.939.939 0 0 1-.422.079 6.974 6.974 0 0 0-1.056.07q-.55.077-1.056.108a15.751 15.751 0 0 1 .164 3.682 14.507 14.507 0 0 1-.717 3.57 1.162 1.162 0 0 1-.304.22.71.71 0 0 1-.366.072zm-3.52-2.375l-.452-.172a6.288 6.288 0 0 0-1.025-.721q-.534-.299-1.056-.66a.518.518 0 0 1-.24-.025 2.176 2.176 0 0 1-.25-.102 1.162 1.162 0 0 1-.22-.303.71.71 0 0 1-.07-.364l.139-.412a.777.777 0 0 1 .4-.233q.228-.052.46-.084l.88.387a2.81 2.81 0 0 0 .503.362q.278.158.53.278l.347.228.346.227.01.077.078-.011.132.1a1.162 1.162 0 0 1 .22.303.846.846 0 0 1 .075.402l-.136.433a1.162 1.162 0 0 1-.303.219.71.71 0 0 1-.366.07zm-2.688-7.387a1.926 1.926 0 0 1-.303-.058 1.57 1.57 0 0 1-.27-.1 1.162 1.162 0 0 1-.22-.303.71.71 0 0 1-.07-.364l.14-.412a4.409 4.409 0 0 1 1.249-.452l1.319-.264-.214-1.52-.232.033q-.65.13-1.253.313t-1.254.314l-.407-.139a1.162 1.162 0 0 1-.22-.303.71.71 0 0 1-.07-.364l.14-.412a4.916 4.916 0 0 1 1.51-.586q.82-.174 1.62-.365l-.012-.079a4.511 4.511 0 0 0-.199-.577 1.736 1.736 0 0 1-.13-.633l.139-.414a1.162 1.162 0 0 1 .302-.219.71.71 0 0 1 .364-.07l.413.137a2.2 2.2 0 0 1 .359.737q.117.415.254.83l.506-.032 1.89-.266.55.001a.946.946 0 0 1 .49.129 1.162 1.162 0 0 1 .22.303.71.71 0 0 1 .07.364l-.14.412a1.11 1.11 0 0 1-.322.222 1.486 1.486 0 0 1-.415.117l-.358-.028-1.85.26-.469.026.21 1.485 1.084-.116.843-.157.412.138a1.162 1.162 0 0 1 .22.304.71.71 0 0 1 .07.364l-.14.412a1.139 1.139 0 0 1-.66.33q-.385.053-.766.146l-1.085.113zm22.007 6.225l-.374-.145a.942.942 0 0 1-.215-.272.8.8 0 0 1-.074-.394 7.669 7.669 0 0 0 .82-2.416 9.577 9.577 0 0 0-.055-2.626l-.089-.499-.077.01a11.538 11.538 0 0 0-1.933.518q-.917.33-1.883.589l-.707-.274a.916.916 0 0 1-.311-.605 5.263 5.263 0 0 0-.13-.709l-.202-1.722-.044-.033-.165-1.451-.044-.033-.178-1.544-.331-1.94.301-.647a1.627 1.627 0 0 1 .297-.2.569.569 0 0 1 .356-.05l.256.004q.872-.26 1.741-.481a14.389 14.389 0 0 1 1.82-.34l.377.163a.942.942 0 0 1 .215.273.67.67 0 0 1 .069.354l-.16.396a1.141 1.141 0 0 1-.546.243q-.317.055-.664.104l.051.366.208.758q.33-.028.648-.072a.917.917 0 0 1 .596.113 1.548 1.548 0 0 1 .22.313.608.608 0 0 1 .067.335l-.16.397a.92.92 0 0 1-.505.257q-.295.052-.59.073l.065.597.093.38.253-.017.824-.155.39.122a1.626 1.626 0 0 1 .2.296.608.608 0 0 1 .066.335l-.142.394a1.68 1.68 0 0 1-.676.297q-.392.084-.755.155l.103 1.146.116-.016 1.074-.19.386.092a1.389 1.389 0 0 1 .354.138 2.028 2.028 0 0 1 .482.983q.109.564.19 1.143a8.9 8.9 0 0 1-.038 2.669 10.126 10.126 0 0 1-.887 2.494 1.7 1.7 0 0 1-.3.239.618.618 0 0 1-.403.085zm2.598-.68l-.413-.138a.921.921 0 0 1-.216-.284.662.662 0 0 1-.054-.385 12.741 12.741 0 0 0 .737-3.957 31.8 31.8 0 0 0-.153-4.028 2.156 2.156 0 0 0-.176-.693 3.188 3.188 0 0 1-.215-.688l.065-.383q-.136-.826-.29-1.65a10.784 10.784 0 0 0-.419-1.573l.142-.393q1.145-.377 2.341-.683t2.487-.506a2.286 2.286 0 0 1 .285.061 1.569 1.569 0 0 1 .269.1.617.617 0 0 1 .262.424q.049.278.09.567a11.966 11.966 0 0 0-.027 1.252 11.968 11.968 0 0 1-.026 1.252l.171.094a1.011 1.011 0 0 1 .208.295.672.672 0 0 1 .058.336l-.142.394a5.506 5.506 0 0 1-1.418.475q-.756.145-1.475.345l.01.077a44.077 44.077 0 0 0 2.336 3.957 19.77 19.77 0 0 0 3.005 3.549l.314.27.076.402-.145.374a1.011 1.011 0 0 1-.295.208.9.9 0 0 1-.394.065l-.394-.141a27.652 27.652 0 0 1-2.818-3.075 18.437 18.437 0 0 1-2.216-3.59l-.077.01a26.589 26.589 0 0 1-.004 3.765 12.159 12.159 0 0 1-.836 3.627 1.2 1.2 0 0 1-.294.218.569.569 0 0 1-.36.05zm-7.347.458a1.58 1.58 0 0 1-.285-.068 2.352 2.352 0 0 1-.271-.11 4.731 4.731 0 0 1-.651-1.038 7.441 7.441 0 0 1-.435-1.208.8.8 0 0 1 .048-.291q.05-.135.11-.261a1.293 1.293 0 0 1 .298-.19.745.745 0 0 1 .355-.06l.394.142q.298.588.582 1.206t.547 1.231l-.15.335a.578.578 0 0 1-.249.193zm1.222-1.234l-.393-.141a6.1 6.1 0 0 1-.487-.806 3.28 3.28 0 0 1-.302-.892l.122-.39a1.542 1.542 0 0 1 .306-.201.646.646 0 0 1 .344-.068l.415.158a5.292 5.292 0 0 1 .484.787 3.853 3.853 0 0 1 .322.89l-.16.395a1.011 1.011 0 0 1-.296.208.745.745 0 0 1-.354.065zm1.6-.931l-.413-.14q-.192-.385-.392-.76a3.281 3.281 0 0 1-.301-.813l.183-.38a1.167 1.167 0 0 1 .286-.197.71.71 0 0 1 .364-.07l.394.141.132.1-.017-.116-.142-.452.16-.396a.8.8 0 0 1 .286-.206.713.713 0 0 1 .345-.059l.412.139a3.066 3.066 0 0 1 .427.588 1.692 1.692 0 0 1 .204.679l-.142.393a1.648 1.648 0 0 1-.299.18.685.685 0 0 1-.354.068l-.393-.141-.171-.094.01.077.214.796-.142.393a1.162 1.162 0 0 1-.303.22.54.54 0 0 1-.348.054zm-.54-4.819l-.033-.369-.01-.785-.157.003-1.022.187.116 1.104.066.187.231-.033zm-.232-2.621l-.049-.485-.094-.537-.292.022-.906.264.027.33.11.654.775-.09zm8.496-2.355l-.024-.169.09-2.155-.5.07-2.202.565.014.099a4.172 4.172 0 0 1 .247 1.037 10.46 10.46 0 0 0 .172 1.086l.33-.027a5.211 5.211 0 0 1 .925-.277q.476-.099.949-.225zm-8.94-.115l-.027-.33-.205-.738-.25.036-.758.223.051.78.068.344.116-.017zm20.644 8.56l-.412-.14a1.162 1.162 0 0 1-.22-.303.777.777 0 0 1-.072-.382 9.253 9.253 0 0 0 .978-2.555 6.385 6.385 0 0 0-.036-2.767 3.075 3.075 0 0 0-.18-.446.75.75 0 0 0-.363-.342.73.73 0 0 0-.338-.032l-.367.052-.838.196q-.096.997-.131 2.004a9.879 9.879 0 0 1-.258 1.943 1.162 1.162 0 0 1-.304.22.846.846 0 0 1-.402.075l-.412-.139a1.389 1.389 0 0 1-.23-.302.555.555 0 0 1-.061-.365 8.185 8.185 0 0 0 .16-1.378q.02-.691.078-1.407l-.115.016q-.254.154-.539.292a1.547 1.547 0 0 1-.637.148l-.418-.137a1.162 1.162 0 0 1-.219-.304.71.71 0 0 1-.07-.363l.139-.413a7.443 7.443 0 0 1 .976-.53q.509-.229 1.032-.42a4.741 4.741 0 0 0-.016-1.236 2.384 2.384 0 0 1 .11-1.176 1.389 1.389 0 0 1 .302-.23.649.649 0 0 1 .363-.08l.415.158a1.11 1.11 0 0 1 .222.323.939.939 0 0 1 .078.42q.01.353.037.683a3.487 3.487 0 0 1-.01.65l.122-.017.992-.218a3.57 3.57 0 0 1 .636.048 1.315 1.315 0 0 1 .585.252l.352.264a2.824 2.824 0 0 1 .705 1.238 8.4 8.4 0 0 1 .268 1.495 7.718 7.718 0 0 1-.195 2.524 8.314 8.314 0 0 1-1.008 2.343 1.7 1.7 0 0 1-.3.24.705.705 0 0 1-.399.098zm8.177-5.77a1.927 1.927 0 0 1-.303-.058 1.57 1.57 0 0 1-.27-.1 14.226 14.226 0 0 0-1.046-1.287 12.438 12.438 0 0 0-1.247-1.181l-1.514-.965a1.162 1.162 0 0 1-.22-.303.71.71 0 0 1-.07-.364l.139-.412a1.162 1.162 0 0 1 .303-.22.71.71 0 0 1 .364-.07 4.609 4.609 0 0 1 1.052.56q.512.36 1.03.68l.626.541.149.216.077-.011.934 1.048a3.254 3.254 0 0 1 .68 1.202l-.14.413a.578.578 0 0 1-.248.192zm12.08 3.708a1.926 1.926 0 0 1-.304-.058 1.57 1.57 0 0 1-.269-.1 1.162 1.162 0 0 1-.22-.303.71.71 0 0 1-.07-.364l.167-.495.197-.283a5.4 5.4 0 0 0 .527-.86q.23-.465.402-.922l-.065-.739a2.037 2.037 0 0 0-.162-.311.957.957 0 0 0-.233-.262.849.849 0 0 0-.507-.106q-.292.022-.562.06a5.734 5.734 0 0 0-1.177.716 3.338 3.338 0 0 1-1.27.61 1.671 1.671 0 0 1-.957-.336 1.913 1.913 0 0 1-.535-.733q-.178-.427-.32-.88l-.281-1.998q.017-.435.015-.868a1.263 1.263 0 0 1 .264-.784 1.162 1.162 0 0 1 .303-.22.71.71 0 0 1 .364-.07l.412.139a1.162 1.162 0 0 1 .22.303.71.71 0 0 1 .07.364 1.643 1.643 0 0 0-.084.523 2.893 2.893 0 0 1-.046.517l.255 1.813.28.59.193-.028a6.232 6.232 0 0 1 1.312-.872 4.07 4.07 0 0 1 1.615-.404 3.253 3.253 0 0 1 .707.137 2.668 2.668 0 0 1 .648.302l.27.238a2.362 2.362 0 0 1 .584.94 4.9 4.9 0 0 1 .22 1.148 2.769 2.769 0 0 1-.217 1.112q-.222.523-.5 1.053l-.194.303-.077.01-.178.419-.194.303-.077.01.01.078a.578.578 0 0 1-.248.192zm-3.232-10.101a10.653 10.653 0 0 0-1.09-.339 10.652 10.652 0 0 1-1.09-.338 1.474 1.474 0 0 1-.221-.323.71.71 0 0 1-.07-.363l.138-.413a1.162 1.162 0 0 1 .304-.22.846.846 0 0 1 .402-.075q.49.128.996.234a3.1 3.1 0 0 1 .98.393 1.6 1.6 0 0 1 .24.31.745.745 0 0 1 .097.41l-.139.413a.578.578 0 0 1-.248.192zm-79.423 46.69l-.453-.152a.965.965 0 0 1-.192-.317 1.72 1.72 0 0 1-.104-.39l-.056-.955q-.122-1.005-.272-2.006t-.308-1.982l-.04-.701-.104-.025-.78 1.019-.078.01-.05.205a1.225 1.225 0 0 1-.324.212.788.788 0 0 1-.365.061l-.396-.16a1.515 1.515 0 0 1-.215-.344.8.8 0 0 1-.047-.406 3.849 3.849 0 0 1 .735-1.136 6.252 6.252 0 0 0 .818-1.107q.572-.687 1.072-1.399t.953-1.446a1.829 1.829 0 0 1 .351-.294.743.743 0 0 1 .459-.094l.415.158a1.255 1.255 0 0 1 .19.307.788.788 0 0 1 .062.365l-.158.415a6.129 6.129 0 0 0-.622.895 6.128 6.128 0 0 1-.621.895l.016.116a.374.374 0 0 1 .125.258q.012.156.034.31l.053.936.1.85-.014.18q.225 1.187.397 2.41t.283 2.428q-.036.163-.06.343a.526.526 0 0 1-.126.293 1.228 1.228 0 0 1-.317.192.754.754 0 0 1-.36.057zm9.77-1.254a12.8 12.8 0 0 1-3.117-.572q-1.532-.482-3.065-.896a3.41 3.41 0 0 1-.287.827l-.392.802a1.389 1.389 0 0 1-.302.23.768.768 0 0 1-.401.085l-.413-.139a1.162 1.162 0 0 1-.22-.303.88.88 0 0 1-.09-.361 15.357 15.357 0 0 0 .924-2.38q.36-1.22.599-2.454a1.2 1.2 0 0 1 .293-.218.824.824 0 0 1 .351-.089l.433.137a1.162 1.162 0 0 1 .219.303.847.847 0 0 1 .076.402 7.289 7.289 0 0 1-.125.863l-.18.87a2.6 2.6 0 0 1 .922.195 3.534 3.534 0 0 0 .889.239q-.165-1.038-.253-2.078t-.214-2.084l-.139-.57-.27.038-.033.044-1.835.315a1.8 1.8 0 0 1-.49.157q-.268.048-.537.086a1.422 1.422 0 0 1-.304-.065 2.352 2.352 0 0 1-.271-.11 1.07 1.07 0 0 1-.227-.282.649.649 0 0 1-.08-.362l.136-.433a.986.986 0 0 1 .676-.297 1.85 1.85 0 0 0 .73-.191l1.923-.31.34-.087-.245-2.03-.537.095-.796.213a2.321 2.321 0 0 1-.774-.186 1.332 1.332 0 0 1-.23-.312.688.688 0 0 1-.082-.372l.139-.413a.966.966 0 0 1 .3-.239.846.846 0 0 1 .403-.076l.548-.018.76-.186q-.064-.596-.178-1.193a2.2 2.2 0 0 1 .068-1.13 1.162 1.162 0 0 1 .303-.22.88.88 0 0 1 .361-.09l.412.139a1.7 1.7 0 0 1 .24.3.6.6 0 0 1 .09.361l.255 1.537.614-.106 1.694-.36.412.139a1.162 1.162 0 0 1 .22.303.71.71 0 0 1 .07.364l-.117.43a3.209 3.209 0 0 1-1.278.482q-.703.109-1.388.264l.282 2.007 1.769-.248.784-.17a3.278 3.278 0 0 0 .91-.098 1.313 1.313 0 0 1 .852.047.966.966 0 0 1 .24.3.846.846 0 0 1 .075.403l-.12.41a1.411 1.411 0 0 1-.835.343 6.667 6.667 0 0 0-.944.143l-.597.065-.534.114-1.386.195.083.594.139.57.057.543q.894-.107 1.82-.275a3.937 3.937 0 0 1 1.746.05 1.162 1.162 0 0 1 .22.303.88.88 0 0 1 .09.36l-.14.413a1.389 1.389 0 0 1-.301.23.768.768 0 0 1-.401.085q-.701.04-1.446.134t-1.473.218l.032.506.307 1.766a12.551 12.551 0 0 0 1.268.352 3.519 3.519 0 0 0 1.36.025q.562-.197 1.081-.417a3.378 3.378 0 0 0 .972-.642l.027-.082.083-.13a1.85 1.85 0 0 1 .38-.377.8.8 0 0 1 .488-.158l.412.139a1.466 1.466 0 0 1 .228.292.668.668 0 0 1 .082.372.791.791 0 0 1-.113.32q-.095.16-.156.287l-.083.13-.133.176a5.179 5.179 0 0 1-1.663 1.099 10.517 10.517 0 0 1-1.99.597zm-12.652-8.21a1.926 1.926 0 0 1-.303-.058 1.57 1.57 0 0 1-.27-.099 1.162 1.162 0 0 1-.219-.303.71.71 0 0 1-.07-.364l.139-.413q.612-.675 1.142-1.389t1.112-1.425l.457-.103.413.139a1.162 1.162 0 0 1 .219.303.71.71 0 0 1 .07.364l-.139.412-1.014 1.456a2.429 2.429 0 0 0-.557.51 4.453 4.453 0 0 0-.44.652.578.578 0 0 1-.249.192zm24.06 6.704a1.926 1.926 0 0 1-.303-.059 1.57 1.57 0 0 1-.27-.1 1.261 1.261 0 0 1-.21-.314.745.745 0 0 1-.06-.355l.141-.394a14.507 14.507 0 0 0 3.85-2.065 17.115 17.115 0 0 0 3.093-3.098l.028-.083.392-.429.094-.17-.643-.516-.632-.442a1.162 1.162 0 0 1-.22-.304.6.6 0 0 1-.051-.366l.139-.412a.978.978 0 0 1 .315-.211.832.832 0 0 1 .374-.063 1.966 1.966 0 0 1 .462.21q.237.144.493.285l.2.169.176.133.357.303a.5.5 0 0 0 .272.256 2.046 2.046 0 0 1 .335.15l.462.348.558.335.012.082.482.208.01.077.078-.01a1.225 1.225 0 0 1 .212.323.947.947 0 0 1 .067.404l-.142.393a1.474 1.474 0 0 1-.322.222.6.6 0 0 1-.367.052 2.091 2.091 0 0 1-.687-.346 1.608 1.608 0 0 0-.683-.308l-.085.113-.1.132-.077.011.01.066-.337.4-.49.58-.217.132-.008.08-.544.607-.362.365a2.406 2.406 0 0 0-.403.351 2.336 2.336 0 0 0-.328.46 11.838 11.838 0 0 1-2.375 1.7 15.728 15.728 0 0 1-2.697 1.099zm3.083-4.503l-.413-.14a2.618 2.618 0 0 1-.415-1.415 9.207 9.207 0 0 0-.162-1.57l-.02-.43-.278-1.69-1.85.26-3.072.668a1.926 1.926 0 0 1-.303-.059 1.57 1.57 0 0 1-.27-.099 1.162 1.162 0 0 1-.219-.303.71.71 0 0 1-.07-.364l.14-.413a3.59 3.59 0 0 1 1.188-.422q.643-.11 1.249-.277l-.087-.616q-.137-.413-.255-.84a6.845 6.845 0 0 1-.184-.887 1.926 1.926 0 0 1 .059-.303 1.569 1.569 0 0 1 .1-.27 1.162 1.162 0 0 1 .303-.22.71.71 0 0 1 .363-.07l.413.14a5.476 5.476 0 0 1 .483 1.337q.159.715.303 1.442l1.585-.223-.371-2.637.006-.237-.212-1.228a1.926 1.926 0 0 1 .058-.303 1.57 1.57 0 0 1 .1-.27 1.162 1.162 0 0 1 .303-.22.71.71 0 0 1 .364-.07l.412.14a1.689 1.689 0 0 1 .326.917 4.16 4.16 0 0 0 .177.978l2.621-.368.413.139a1.162 1.162 0 0 1 .219.303.71.71 0 0 1 .07.364l-.136.432a1.111 1.111 0 0 1-.642.326q-.366.052-.746.145l-.044-.034-1.584.223.168 1.195.969-.096 2.537-.357q.583-.043 1.216-.092a3.158 3.158 0 0 1 1.166.112 1.162 1.162 0 0 1 .219.303.71.71 0 0 1 .07.364l-.139.412a1.11 1.11 0 0 1-.322.222 1.486 1.486 0 0 1-.416.117l-1.738.087-2.545.358-.854.08.315 2.236.096.97.14 1.551-.14.412a1.162 1.162 0 0 1-.303.22.71.71 0 0 1-.361.07zm-4.455-.081a2.339 2.339 0 0 1-.311-.057 1.429 1.429 0 0 1-.28-.098 1.162 1.162 0 0 1-.219-.304.71.71 0 0 1-.07-.364l.139-.412.265-.351.593-.673a5.444 5.444 0 0 1 .42-.65 2.794 2.794 0 0 0 .375-.681 1.162 1.162 0 0 1 .304-.22.71.71 0 0 1 .363-.07l.413.14a1.162 1.162 0 0 1 .22.303.846.846 0 0 1 .075.402 2.152 2.152 0 0 1-.134.451 3.543 3.543 0 0 1-.216.423l-.077.011.01.077-.513.82-.309.319-.215.148.01.078-.099.132-.408.45zm19.379 2.486a1.926 1.926 0 0 1-.304-.058 1.569 1.569 0 0 1-.269-.1 1.162 1.162 0 0 1-.22-.303.71.71 0 0 1-.07-.364l.14-.412q.683-.45 1.398-.826a3.626 3.626 0 0 0 1.241-1.098 5.611 5.611 0 0 0 .64-1.328 3.639 3.639 0 0 0 .148-1.456 2.181 2.181 0 0 0-.268-.789 2.074 2.074 0 0 0-.56-.628 2.884 2.884 0 0 0-1.756-.323 2.884 2.884 0 0 1-1.756-.324 2.235 2.235 0 0 1-.54-.77 3.059 3.059 0 0 1-.216-.972q.14-1.238.304-2.451a16.631 16.631 0 0 1 .508-2.401 1.162 1.162 0 0 1 .303-.22.71.71 0 0 1 .364-.07l.412.14a1.335 1.335 0 0 1 .173.25.882.882 0 0 1 .1.3 25.838 25.838 0 0 1 2.64-.233 12.334 12.334 0 0 1 2.58.168 1.7 1.7 0 0 1 .24.301.761.761 0 0 1 .098.418l-.14.413a1.162 1.162 0 0 1-.303.22.71.71 0 0 1-.363.07q-1.107-.042-2.205-.025a18.2 18.2 0 0 0-2.255.18l-.573.12a10.836 10.836 0 0 1-.21 1.582 5.4 5.4 0 0 0-.088 1.605l.303.194a8.454 8.454 0 0 1 1.751.01 3.386 3.386 0 0 1 1.602.62l.01.077.078-.011a3.239 3.239 0 0 1 .936 1.205 4.751 4.751 0 0 1 .39 1.518 5.221 5.221 0 0 1-.141 1.376 7.086 7.086 0 0 1-.462 1.323l-.227.346-.078.01a1.093 1.093 0 0 1-.21.463 4.742 4.742 0 0 0-.293.433 6.628 6.628 0 0 1-1.343 1.074 9.991 9.991 0 0 1-1.51.746zm19.586-3.303l-.412-.139a1.162 1.162 0 0 1-.22-.303.846.846 0 0 1-.075-.403l.139-.412.232-.308.431-.572.077-.01a13.5 13.5 0 0 0 .663-2.417 8.021 8.021 0 0 0 .023-2.499l-.264-.474a1.976 1.976 0 0 0-.824-.12q-.45.023-.873.083l-.38.093a10.383 10.383 0 0 1-.443 2.303 14.928 14.928 0 0 1-.894 2.17l-.077.011-.177.418-.078.01.011.078-.44.789-.574.67-.495.11-.413-.14a1.162 1.162 0 0 1-.219-.303.71.71 0 0 1-.07-.364l.136-.432.077-.01-.01-.078a2 2 0 0 0 .397-.528l.31-.593a3.988 3.988 0 0 0 .533-.96q.202-.52.445-1.026l.407-1.866-.083.012q-.523.192-1.088.369a7.093 7.093 0 0 1-1.142.261l-.413-.138a1.162 1.162 0 0 1-.22-.304.71.71 0 0 1-.07-.364l.14-.412a14.018 14.018 0 0 1 1.79-.684 12.549 12.549 0 0 1 1.946-.43l.237.005 1.184-.245a7.887 7.887 0 0 1 1.14-.003 2.264 2.264 0 0 1 1.028.327 2.1 2.1 0 0 1 .388.378q.167.213.315.427.116.26.216.56a2.238 2.238 0 0 1 .111.653 10.3 10.3 0 0 1-.132 2.839 11.312 11.312 0 0 1-.896 2.71l-.1.133-.331.44-.1.131-.132.177-.078.01.011.078a1.162 1.162 0 0 1-.303.22.71.71 0 0 1-.36.072zm4.672-8.304a3.159 3.159 0 0 1-.964-.356q-.48-.267-.947-.516a10.865 10.865 0 0 1-2.266-1.853q-.974-1.053-1.921-2.178l-.104-.457.139-.412a1.162 1.162 0 0 1 .303-.22.71.71 0 0 1 .364-.07l.412.139.62.778.078-.01 1.26 1.392a6.784 6.784 0 0 0 .621.64 3.012 3.012 0 0 0 .717.488l.498.323.01.077.078-.01.56.353.804.398.132.1a1.162 1.162 0 0 1 .22.303.71.71 0 0 1 .07.364l-.14.412a.578.578 0 0 1-.248.193zm-12.452 1.197l-.413-.135a1.162 1.162 0 0 1-.22-.304.71.71 0 0 1-.07-.363l.172-.457.133-.176.861-1.143q.625-.874 1.23-1.814a13.114 13.114 0 0 0 1.02-1.902 1.162 1.162 0 0 1 .304-.22.71.71 0 0 1 .363-.07l.413.14a1.162 1.162 0 0 1 .219.303.846.846 0 0 1 .076.402 3.942 3.942 0 0 1-.38.938q-.25.448-.497.935l-.077.011-.145.374-.425.61-.077.01-.145.374-.077.011-.083.248-.077.011-.084.248-.215.149.01.077-.165.22-.28.393-.077.01.011.078-.403.489-.1.132a2.205 2.205 0 0 1-.35.305.78.78 0 0 1-.452.116zm20.825.474l-.354-.009a2.439 2.439 0 0 1-.252-.18.425.425 0 0 1-.128-.277q-.055-2.214-.14-4.424t-.066-4.316a.958.958 0 0 1 .25-.258.758.758 0 0 1 .344-.137l.432-.002a.886.886 0 0 1 .27.178.612.612 0 0 1 .15.293q.03 2.04.089 4.229t.024 4.44a1.347 1.347 0 0 1-.258.262 1.579 1.579 0 0 1-.36.204zm-.041 4.016l-.677-.337a1.7 1.7 0 0 1-.239-.3q-.101-.163-.25-.379l.006-.237.007-.512.139-.412a1.856 1.856 0 0 1 .564-.296q.32-.103.622-.188a3.49 3.49 0 0 1 .438.04.828.828 0 0 1 .376.163 1.3 1.3 0 0 1 .319.584l.174.682-.139.413-.077.01.011.078q-.28.236-.565.453a1.247 1.247 0 0 1-.713.241z" data-name="パス 54632"/></g></svg>