<svg xmlns="http://www.w3.org/2000/svg" viewBox="0 0 120 63.118"><path fill="none" d="M0 0h120v60.981H0z" data-name="長方形 1"/><path fill="#fff" d="M28.918 20.457q.045.323.176 1.157t.193 1.274a10.859 10.859 0 0 1 .083 1.126 7.142 7.142 0 0 1-.071 1.296q-.01.15-.22 1.842a22.848 22.848 0 0 1-.42 2.528 38.985 38.985 0 0 1-4.345 9.98 49.58 49.58 0 0 1-5.531 7.664 28.87 28.87 0 0 1-3.965 3.762 12.887 12.887 0 0 1-2.76 1.738 9.483 9.483 0 0 1-2.025.616 2.7 2.7 0 0 1-2.505-.902 5.465 5.465 0 0 0-.396-.393q-.256-.232-.466-.44a4.323 4.323 0 0 1-.353-.398 4.021 4.021 0 0 1-.71-1.455 15.382 15.382 0 0 1-.198-3.363q.043-.755.157-1.638t.261-1.533q.147-.65.366-1.638t.32-1.542q.017-.092.524-1.78-.207-.21-.542-.58t-.594-.635q-.26-.266-.497-.468a2.178 2.178 0 0 1-.687-1.096 3.424 3.424 0 0 1-.117-1.27 9.16 9.16 0 0 1 .227-2.201 13.9 13.9 0 0 1 .572-1.977q.316-.823.83-2.036a35.313 35.313 0 0 1 4.47-7.393 24.084 24.084 0 0 1 4.588-4.63 10.1 10.1 0 0 1 4.133-1.902 7.3 7.3 0 0 1 6.364 1.494 8.756 8.756 0 0 1 2.524 3.382 3.741 3.741 0 0 0 .174.394 3.739 3.739 0 0 1 .173.395 2.705 2.705 0 0 1 .267.622zm-1.574 3.424q.005-.18.003-.823t-.029-.923q-.024-.28-.08-.782a5.429 5.429 0 0 0-.17-.903 6.243 6.243 0 0 0-.285-.798.456.456 0 0 1-.083-.168 3.394 3.394 0 0 0-1.87-2.518 6.463 6.463 0 0 0-6.196-.261 14.985 14.985 0 0 0-4.485 3.446 32.214 32.214 0 0 0-4.266 5.815 27.687 27.687 0 0 0-3.397 8.253 2.676 2.676 0 0 0 .38 1.865.612.612 0 0 0 .786.308q.386-1.073.406-1.135.113-.255.597-1.371t.726-1.718a26.8 26.8 0 0 1 3.248-5.91 2.748 2.748 0 0 1 1.573-1.09q.137.13.322.284l.403.332q.218.178.384.304-.026.243-.045.635t-.021.571q-.15-.008-.362-.039a1.256 1.256 0 0 0-.329-.013 48 48 0 0 0-3.04 5.486q-1.475 3.085-1.373 4.028.859-.241.916-.25a16.44 16.44 0 0 0 4.59-1.636q.72-.37 3.86-2.158a3.639 3.639 0 0 1 2.175-.609 1.379 1.379 0 0 1-.314 1.357 12.073 12.073 0 0 1-1.774 1.747 26.677 26.677 0 0 1-5.183 2.708 14.187 14.187 0 0 1-5.166.91 4.674 4.674 0 0 0-.193.532A43.228 43.228 0 0 0 7.64 45.67a12.956 12.956 0 0 0-.124 3.578 8.219 8.219 0 0 0 .555 1.626 1.062 1.062 0 0 0 1.093.594 4.648 4.648 0 0 0 2.438-.854 25.573 25.573 0 0 0 6.13-5.506 50.879 50.879 0 0 0 5.142-7.46 40.514 40.514 0 0 0 3.444-7.731q.075-.314.202-.896t.19-.805a16.378 16.378 0 0 0 .635-4.336zm12.688 9.73a2.221 2.221 0 0 1 .37 1.802 9.442 9.442 0 0 1-2.542 4.998q-.05.066-.931.999a1.639 1.639 0 0 1-.583-.02 1.919 1.919 0 0 1-.451-.145 5.442 5.442 0 0 1-.506-.318 4.988 4.988 0 0 0-.443-.28 1.63 1.63 0 0 1 .752-1.217 7.954 7.954 0 0 0 2.601-4.587q-.563.439-.592.443a22.111 22.111 0 0 0-2.968 4.938 36.57 36.57 0 0 0-2.514 8.405q-.31 1.6-.905 4.586t-.754 3.757q-.046.31-.165.98t-.185 1.014a1.352 1.352 0 0 1-.715 1.059q-.753-.283-1.664-.633a5.084 5.084 0 0 1 .07-1.834q.067-.37.16-1.085a7.988 7.988 0 0 1 .174-.997q.063-.398.56-2.906t.7-3.824q.57-3.372.814-6.309.098-1.001.335-6.33a2.03 2.03 0 0 0-.007-.584 2.89 2.89 0 0 1-.015-.64q.03-.214.38-2.388.083-.042.18-.1a.922.922 0 0 1 .166-.083q.071-.025.128-.048a.574.574 0 0 0 .11-.061 1.185 1.185 0 0 1 .709.393 1.167 1.167 0 0 1 .37.74 5.628 5.628 0 0 1 .044 1.162q.003.448-.064 1.565t-.073 1.716l.165 1.174a4.98 4.98 0 0 0 .363-.59q.565-1.068.897-1.669t.91-1.46a12.578 12.578 0 0 1 1.147-1.474 8.326 8.326 0 0 1 1.298-1.14 1.58 1.58 0 0 1 .988-.38 1.407 1.407 0 0 1 .874.505 11.7 11.7 0 0 1 .812.861zm12.381-2.051a4.209 4.209 0 0 1-.268 2.551 12.583 12.583 0 0 1-2.915 4.247 6.279 6.279 0 0 1-2.103 1.345 3.534 3.534 0 0 1-2.108.134 3.374 3.374 0 0 1-1.776-1.14 9.376 9.376 0 0 1-.83-1.05 3.578 3.578 0 0 1-.22-2.632 6.637 6.637 0 0 1 1.761-3.36.688.688 0 0 0 .149-.217.924.924 0 0 1 .173-.248 6.671 6.671 0 0 1 .978-.896 1.689 1.689 0 0 1 2.51.513.521.521 0 0 0 .078.138.688.688 0 0 0 .142.16 2.372 2.372 0 0 1 .57.996 2.21 2.21 0 0 1 .048 1.056 3.493 3.493 0 0 1-.357.96 3.3 3.3 0 0 1-.616.805 4.317 4.317 0 0 1-3.51 1.484l-.262.036a1.762 1.762 0 0 0 .072 1.053 1.1 1.1 0 0 0 .79.44 3.121 3.121 0 0 0 1.883-.146 6.736 6.736 0 0 0 2.462-1.961 10.124 10.124 0 0 0 2.35-4.673 3.023 3.023 0 0 1 .263-.456.9.9 0 0 1 .736.857zm-5.893.175a5.445 5.445 0 0 0-2.033 2.681 2.821 2.821 0 0 0 1.704-1.004 1.839 1.839 0 0 0 .329-1.681zm15.345-1.272a1.379 1.379 0 0 1 .52 1.602 3.031 3.031 0 0 1-.526.912q-.875.961-2.08 2.15a2.941 2.941 0 0 1-2.246.736 3.431 3.431 0 0 1-.39-.349 2.123 2.123 0 0 1-.33-.447q-.137-.25-.223-.417a3.775 3.775 0 0 1-.192-.527q-.11-.358-.144-.502t-.138-.565q-.104-.42-.12-.536a10.686 10.686 0 0 0-1.383 1.81q-1.246 1.912-1.47 2.242a2.066 2.066 0 0 1-1.177.974 1.241 1.241 0 0 1-.566-.325 3.852 3.852 0 0 1-.5-.602 3.054 3.054 0 0 0-.413-.51q.067-.37.165-.981t.167-1.041q.073-.43.177-.968t.187-.998q.076-.314.116-.45a2.6 2.6 0 0 1 .153-.383.815.815 0 0 1 .307-.357 1.351 1.351 0 0 1 .513-.162 2.859 2.859 0 0 1 .742 1.9q1.775-2.405 2.005-2.677a3.02 3.02 0 0 1 1.05-.777.873.873 0 0 1 1.241.363 4.185 4.185 0 0 1 .706 2.922q-.022.063.002 1.078a6.282 6.282 0 0 0 2.132-1.558 13.452 13.452 0 0 1 1.714-1.561zm16.833-15.52a20.339 20.339 0 0 0 .013-4.37q-.171-1.651-.261-2.084a.858.858 0 0 0-.118-.313q-.097-.166-.228-.357a2.669 2.669 0 0 1-.172-.278 2.315 2.315 0 0 0-2.055 1.039 26.64 26.64 0 0 0-1.96 3.002 58.509 58.509 0 0 0-4.224 9.992q-.243.813-.61 2.017t-.634 2.064q-.267.86-.588 1.968t-.606 2.045a41.238 41.238 0 0 0-1.476 9.663 13.637 13.637 0 0 0 .177 2.549 2.256 2.256 0 0 0 .801 1.472 6.072 6.072 0 0 0 2.426-.941 13.333 13.333 0 0 0 2.271-1.803q1.046-1.03 2.348-2.56 1.048-1.226 2.26-2.878t1.803-2.529q.59-.876 2.041-3.056a17.833 17.833 0 0 1 1.34-1.686 1.606 1.606 0 0 1 1.251-.627 2.464 2.464 0 0 1 .13 1.987 14.864 14.864 0 0 1-2.188 4.138q-.25.339-.61.85t-.622.866q-.263.35-.612.834t-.638.868l-.626.836q-.34.452-.642.839t-.645.81q-.345.423-.675.813t-.695.805a19.128 19.128 0 0 1-5.272 4.156 2.69 2.69 0 0 1-3.495-.317l-.715-.541a3.483 3.483 0 0 1-.88-.878 2.346 2.346 0 0 0-.223-.417 4.842 4.842 0 0 1-.267-.502 2.859 2.859 0 0 1-.161-.426 11.149 11.149 0 0 1-.267-3.822 10.29 10.29 0 0 0 .143-1.535q.038-1.008.101-1.435a53.236 53.236 0 0 1 1.697-8.05q1.104-3.806 2.772-8.68a63.569 63.569 0 0 1 2.674-6.182 30.714 30.714 0 0 1 2.937-5.08 6.1 6.1 0 0 1 2.245-1.84 2.471 2.471 0 0 1 2.668.58 5.471 5.471 0 0 1 2.33 5.176q-.081.7-.225 1.483t-.362 1.767q-.219.988-.297 1.478-.106.52-.333 1.663l-.1.014a.381.381 0 0 1-.118.001.324.324 0 0 0-.101 0 .2.2 0 0 1-.09-.003.23.23 0 0 1-.064-.036 1.781 1.781 0 0 1-.498-.797 6.065 6.065 0 0 1-.075-1.752zM92.227 28.35q-.19 1.403-.208 1.495a7.26 7.26 0 0 0 .508 4.057l.026.191a.805.805 0 0 1-.025.243q-.036.17-.053.262a1.279 1.279 0 0 1-1.39-.791q-.087-.197-.968-2.466-.238.213-.6.608t-.595.638a5.378 5.378 0 0 1-.623.537 3.771 3.771 0 0 1-.745.449 3.164 3.164 0 0 1-.831.218 3.463 3.463 0 0 1-.99-.005q-1.153-1.661-1.232-1.8a2.621 2.621 0 0 1 .21-2.756 17.892 17.892 0 0 1 1.637-2.325 4.76 4.76 0 0 1 1.88-1.433 1.432 1.432 0 0 1 1.082-.033 1.79 1.79 0 0 1 .854.688q.004.03.398.722.15.01.498.05a5.142 5.142 0 0 0 .556.04q.129.285.352.818t.259.593zm-2.687.14a1.2 1.2 0 0 0 .036-1.232 4.579 4.579 0 0 0-1.53 1.07 7.466 7.466 0 0 0-1.382 1.708 2.519 2.519 0 0 0-.429 1.617l.35-.05a15.221 15.221 0 0 0 2.955-3.112zm16.89-6.398l.44.178a1.029 1.029 0 0 1-.551.946l-1.268.717a34.923 34.923 0 0 0-6.209 3.66q-.024.035-.521.523a7.505 7.505 0 0 1 2.937 1.889 4.51 4.51 0 0 1 1.2 3.27 14.586 14.586 0 0 1-1.124 5.366 14.373 14.373 0 0 1-3.244 5.304q-.104.104-1.326.935a1.01 1.01 0 0 1-1.096.035 7.847 7.847 0 0 1-1.7-1.106 1 1 0 0 1-.226-.342 4.478 4.478 0 0 1-.186-.602 2.385 2.385 0 0 0-.136-.444 2.305 2.305 0 0 1-.036-.683l.017-1.364q.012-.974.047-1.682t.095-1.345q.336-3.129.966-7.138.182-1.043 1.1-5.96.038-.155.1-.358l.121-.406q.061-.204.1-.358l.28-1.596a22.077 22.077 0 0 1 .49-2.253q.076-.314.248-1.531a6.334 6.334 0 0 1 .473-1.833 2.547 2.547 0 0 1 0-.643q.04-.35.081-.58t.135-.633q.093-.402.126-.587a13.293 13.293 0 0 1 .965-3.098 1.2 1.2 0 0 1 .589-.577 1.111 1.111 0 0 1 .774-.094 1.482 1.482 0 0 1 .776.548 1.345 1.345 0 0 1 .371.846l-.138.289q-.325.016-.654.003a2.626 2.626 0 0 0-.199.387q-.074.19-.15.41a3.594 3.594 0 0 0-.11.39q-.035.169-.086.446t-.064.404q-.24 1.052-.523 2.648-.038.365-.148 1.098t-.153 1.069l-.065.36q-.033.184-.069.354t-.082.37q-.047.202-.067.37a2.83 2.83 0 0 1-.07.354q-.048.186-.082.37-.514 2.707-.834 4.46-.022.063-.269 1.684 1.686-1.136 1.769-1.178a27.547 27.547 0 0 1 5.59-2.975 8.765 8.765 0 0 1 1.595-.317zm-6.792 8.44a6.837 6.837 0 0 0-2.86-.463q-.081.49-.27 1.474t-.308 1.734q-.118.75-.204 1.42-.28 2.254-.534 6.18a3.634 3.634 0 0 0 .333 1.957q.47-.246.5-.25a9.791 9.791 0 0 0 2.068-2.866 22.106 22.106 0 0 0 1.482-3.65 13.9 13.9 0 0 0 .515-2.915 3.749 3.749 0 0 0-.053-1.339 2.461 2.461 0 0 0-.668-1.28zm16.725-8.018a4.209 4.209 0 0 1-.269 2.551 12.583 12.583 0 0 1-2.915 4.247 6.279 6.279 0 0 1-2.103 1.345 3.534 3.534 0 0 1-2.107.134 3.374 3.374 0 0 1-1.776-1.14 9.375 9.375 0 0 1-.83-1.05 3.578 3.578 0 0 1-.22-2.632 6.637 6.637 0 0 1 1.76-3.36.688.688 0 0 0 .149-.217.924.924 0 0 1 .173-.248 6.67 6.67 0 0 1 .976-.887 1.689 1.689 0 0 1 2.51.513.521.521 0 0 0 .079.138.688.688 0 0 0 .142.16 2.372 2.372 0 0 1 .569.989 2.21 2.21 0 0 1 .047 1.055 3.493 3.493 0 0 1-.357.96 3.3 3.3 0 0 1-.616.805 4.317 4.317 0 0 1-3.51 1.484l-.262.037a1.762 1.762 0 0 0 .072 1.052 1.1 1.1 0 0 0 .79.441 3.121 3.121 0 0 0 1.883-.146 6.737 6.737 0 0 0 2.462-1.962 10.124 10.124 0 0 0 2.35-4.673 3.022 3.022 0 0 1 .264-.456.9.9 0 0 1 .739.86zm-5.893.175a5.445 5.445 0 0 0-2.034 2.68 2.821 2.821 0 0 0 1.704-1.003 1.839 1.839 0 0 0 .327-1.677z" data-name="パス 113"/><path fill="#fff" d="M54.134 59.183h2v-.778h-2zm7.501 1.839a1.693 1.693 0 0 0 1.135-.533h.022l.088.43h.872v-5.913h-1.077v1.459l.044.652a1.4 1.4 0 0 0-1.04-.452c-.886 0-1.721.83-1.721 2.185s.659 2.172 1.677 2.172zm.278-.9c-.542 0-.85-.43-.85-1.289 0-.83.388-1.274.85-1.274a1.083 1.083 0 0 1 .762.311v1.822a.91.91 0 0 1-.762.43zm3.728.793h1.069v-4.146h-1.069zm.542-4.815a.6.6 0 0 0 .637-.593.591.591 0 0 0-.637-.593.593.593 0 0 0-.645.593.6.6 0 0 0 .646.595zm3.59 4.922c1.069 0 1.633-.585 1.633-1.311 0-.77-.6-1.044-1.143-1.252-.432-.163-.835-.274-.835-.578 0-.237.176-.4.542-.4a1.569 1.569 0 0 1 .886.356l.483-.659a2.281 2.281 0 0 0-1.4-.511c-.923 0-1.524.526-1.524 1.274 0 .689.6 1.007 1.121 1.207.432.17.857.311.857.622 0 .259-.183.437-.593.437a1.77 1.77 0 0 1-1.1-.452l-.491.681a2.568 2.568 0 0 0 1.564.586zm3.186-.1h1.069v-2.857a1.175 1.175 0 0 1 .857-.467c.4 0 .579.23.579.867v2.452h1.077v-2.585c0-1.044-.381-1.667-1.267-1.667a1.858 1.858 0 0 0-1.289.607l.044-.778v-1.488H72.96zm8.482-1.519a1.056 1.056 0 0 1 .447-.77 7.721 7.721 0 0 0 1.223 1.281 1.458 1.458 0 0 1-.791.274.8.8 0 0 1-.879-.79zm.543-2.681c0-.407.227-.667.542-.667.286 0 .41.2.41.474 0 .4-.33.667-.754.926a1.724 1.724 0 0 1-.198-.733zm3.479 3.407a3.27 3.27 0 0 1-.96-.393 6.052 6.052 0 0 0 .916-1.881h-.974a4.153 4.153 0 0 1-.667 1.393 6.9 6.9 0 0 1-1.172-1.141c.579-.407 1.165-.859 1.165-1.585a1.151 1.151 0 0 0-1.26-1.193 1.358 1.358 0 0 0-1.421 1.393 2.608 2.608 0 0 0 .344 1.185 1.82 1.82 0 0 0-1.018 1.556 1.587 1.587 0 0 0 1.773 1.559 2.6 2.6 0 0 0 1.665-.579 4.351 4.351 0 0 0 1.345.579zm5.6.889a2.022 2.022 0 0 0 1.34-.5l-.425-.719a1.266 1.266 0 0 1-.8.333c-.593 0-1.018-.5-1.018-1.281s.425-1.3 1.047-1.3a.931.931 0 0 1 .63.274l.513-.7a1.782 1.782 0 0 0-1.196-.46 2.06 2.06 0 0 0-2.095 2.185 1.973 1.973 0 0 0 2 2.172zm4.344 0a2.012 2.012 0 0 0 1.97-2.17 2.016 2.016 0 0 0-1.97-2.185 2.016 2.016 0 0 0-1.97 2.185 2.012 2.012 0 0 0 1.966 2.174zm0-.889c-.557 0-.872-.5-.872-1.281s.315-1.3.872-1.3.872.511.872 1.3-.319 1.284-.876 1.284zm5.947-5.079a2.13 2.13 0 0 0-.776-.148c-1.029 0-1.424.667-1.424 1.533v.341l-.55.046v.807h.55v3.289h1.076v-3.29h.769v-.859h-.769v-.356c0-.459.176-.652.5-.652a1.324 1.324 0 0 1 .432.089zm3.457 0a2.13 2.13 0 0 0-.776-.148c-1.033 0-1.428.667-1.428 1.533v.341l-.546.046v.807h.549v3.289h1.077v-3.29h.767v-.859h-.767v-.356c0-.459.176-.652.5-.652a1.324 1.324 0 0 1 .432.089zm2.766 5.972a2.568 2.568 0 0 0 1.436-.459l-.366-.667a1.678 1.678 0 0 1-.923.289 1.082 1.082 0 0 1-1.136-1.039h2.527a2.045 2.045 0 0 0 .051-.5c0-1.148-.586-1.985-1.714-1.985a2.022 2.022 0 0 0-1.911 2.189 2 2 0 0 0 2.036 2.172zm-1-2.593a.93.93 0 0 1 .894-.919c.527 0 .776.356.776.919zm5.988 2.593a2.568 2.568 0 0 0 1.436-.459l-.366-.667a1.678 1.678 0 0 1-.923.289 1.082 1.082 0 0 1-1.135-1.037h2.527a2.045 2.045 0 0 0 .051-.5c0-1.148-.586-1.985-1.714-1.985a2.022 2.022 0 0 0-1.912 2.185 2 2 0 0 0 2.036 2.174zm-1-2.593a.93.93 0 0 1 .894-.919c.527 0 .776.356.776.919zm6.387.756h2v-.778h-2z" data-name="パス 54665"/></svg>